<svg xmlns="http://www.w3.org/2000/svg" viewBox="0 0 1080 1080"><defs><style>.cls-1{fill:#d3d3d3;}.cls-2,.cls-4,.cls-6{fill:none;stroke:#0e0e0e;stroke-width:3px;}.cls-2,.cls-6{stroke-linecap:round;}.cls-2{stroke-linejoin:round;}.cls-3{fill:#ababab;}.cls-4,.cls-6{stroke-miterlimit:10;}.cls-5,.cls-9{fill:#0e0e0e;}.cls-7{fill:#231f20;}.cls-8{fill:#fff;}.cls-9{font-size:318.72px;font-family:Nunito-ExtraLight, Nunito;letter-spacing:0.3em;}.cls-10{fill:#e2e2e2;}</style></defs><title>404 2</title><g id="_404_2" data-name="404 2"><path class="cls-1" d="M541.25,279.47c37-30.35,126.55-16.48,150.45,29.44,20.84,34.09,20.23,94.25-20.93,137.36-30.94,29.44-13.26,68.7-26.46,130.6-24.87,106-177.46,68.84-161.11-31.52,5.8-58.83,37.83-102.49,27-138.2C492.36,349.79,514.08,300.51,541.25,279.47Z"/><path class="cls-2" d="M514.4,279.47C551.4,249.12,641,263,664.85,308.9c20.84,34.09,20.23,94.25-20.93,137.36C613,475.71,630.66,515,617.46,576.86c-24.87,106-177.46,68.84-161.11-31.52,5.8-58.83,37.83-102.49,27-138.2C465.51,349.79,487.23,300.51,514.4,279.47Z"/><path class="cls-2" d="M622.45,512.9a118,118,0,1,1-150.69-29.49"/><rect class="cls-2" x="469.35" y="476.82" width="159.64" height="21.53" rx="5.16" ry="5.16" transform="translate(103.85 -96.38) rotate(11.07)"/><path class="cls-3" d="M599.21,615.7l20.44,41.13-47.75-22.4C582.3,629.76,593,621.15,599.21,615.7Z"/><path class="cls-4" d="M598.39,615.21l21.07,39.5a2.54,2.54,0,0,1-3.38,3.44l-48.66-21.91"/><line class="cls-4" x1="574.78" y1="632.79" x2="619.03" y2="653.7"/><path class="cls-3" d="M460.41,588.54l-34.18,29.07,52.41-1.43C470.78,607.94,464.09,595.93,460.41,588.54Z"/><path class="cls-4" d="M460.8,588.29l-34.41,28.65a2.54,2.54,0,0,0,1.83,4.47l54-2.38"/><line class="cls-4" x1="476.6" y1="613.58" x2="427.73" y2="616.26"/><path class="cls-4" d="M584.07,400.95l-47.26-55.49c-4.94-6.7.28-19.69,7-24.63h0c6.7-4.94,23.27-5.35,28.2,1.35L608.42,383a15.17,15.17,0,0,1-3.2,21.15h0A15.17,15.17,0,0,1,584.07,400.95Z"/><rect class="cls-5" x="547.85" y="346.86" width="45.27" height="20.17" rx="10.08" ry="10.08" transform="matrix(0.58, 0.82, -0.82, 0.58, 533.68, -315)"/><rect class="cls-4" x="597.4" y="382.08" width="8.81" height="4.41" rx="2.2" ry="2.2" transform="translate(198.98 -205.27) rotate(23.1)"/><rect class="cls-4" x="583.08" y="392.42" width="8.81" height="4.41" rx="2.2" ry="2.2" transform="translate(157.23 956.54) rotate(-86.45)"/><rect class="cls-4" x="595.03" y="388.54" width="4.3" height="8.6" rx="2.15" ry="2.15" transform="translate(1311.56 368.15) rotate(144.68)"/><path class="cls-4" d="M672.85,326.27c5.79-2.13,12.18-2.65,15.92,0l53.84,46.12a15.17,15.17,0,0,1,3.68,21.07h0a15.17,15.17,0,0,1-21.07,3.68l-47.11-28.4"/><rect class="cls-5" x="675.74" y="349.61" width="45.27" height="20.17" rx="10.08" ry="10.08" transform="translate(348.93 -343.87) rotate(36.34)"/><rect class="cls-4" x="732.34" y="373.48" width="8.81" height="4.41" rx="2.2" ry="2.2" transform="translate(32.52 -57.9) rotate(4.6)"/><rect class="cls-4" x="722.04" y="387.84" width="8.81" height="4.41" rx="2.2" ry="2.2" transform="matrix(-0.26, -0.97, 0.97, -0.26, 536.93, 1192.5)"/><rect class="cls-4" x="732.93" y="380.97" width="4.3" height="8.6" rx="2.15" ry="2.15" transform="translate(1480.05 19.48) rotate(126.19)"/><path class="cls-2" d="M603.7,577.59a121.73,121.73,0,0,1,23.76,9.18"/><path class="cls-2" d="M567,573.27q4.91-.1,9.65.13"/><path class="cls-2" d="M606.77,567a123.8,123.8,0,0,1,34.1,10.32"/><path class="cls-2" d="M568.33,567.19q3.63-.54,7.18-.89"/><path class="cls-2" d="M607.06,554.69a124.24,124.24,0,0,1,37.15,5.56"/><path class="cls-2" d="M569.06,560.76q2.89-.9,5.75-1.66"/><path class="cls-2" d="M471.32,551.63a121.7,121.7,0,0,0-26.18-.54"/><path class="cls-2" d="M506.21,561.37q-4.16-1.79-8.29-3.27"/><path class="cls-2" d="M469.15,540a124.19,124.19,0,0,0-32.85-2.69"/><path class="cls-2" d="M507.3,555.25q-3.47-2.06-7-3.87"/><path class="cls-2" d="M470.17,526.79a127.47,127.47,0,0,0-37.87-7"/><path class="cls-2" d="M509.14,548.76q-3.84-3.13-7.76-5.87"/><path class="cls-6" d="M484.23,488.81c-12.22,20.67-17.93,42-12.58,64.27,4.91,15.51,20.14,13.86,25.85,5.06,8.65-12.05-1.52-41.41,11.94-61"/><path class="cls-6" d="M589.68,509.44c-12.22,20.67-17.93,42-12.58,64.27,4.91,15.51,20.14,13.86,25.85,5.06,8.65-12.05-1.52-41.41,11.94-61"/><circle class="cls-4" cx="560.05" cy="606.42" r="15.68" transform="translate(-142.62 1039.6) rotate(-78.93)"/><circle class="cls-7" cx="560.05" cy="606.42" r="11.27" transform="translate(-142.62 1039.6) rotate(-78.93)"/><path class="cls-7" d="M542.42,579.94l-9.15,6.16a1.43,1.43,0,0,1-2-.39l-6.16-9.15a1.43,1.43,0,0,1,.39-2l17.3,3.38A1.43,1.43,0,0,1,542.42,579.94Z"/><polyline class="cls-2" points="550.77 545.79 539.39 549.54 530.69 539.96"/><circle class="cls-8" cx="563.65" cy="613.05" r="2.64" transform="translate(-146.22 1048.49) rotate(-78.93)"/><circle class="cls-4" cx="498.88" cy="594.45" r="15.68" transform="translate(-180.3 969.9) rotate(-78.93)"/><circle class="cls-7" cx="498.88" cy="594.45" r="11.27" transform="translate(-180.3 969.9) rotate(-78.93)"/><circle class="cls-8" cx="502.48" cy="601.08" r="2.64" transform="translate(-183.9 978.79) rotate(-78.93)"/><path class="cls-1" d="M516.87,273c-2.17-7.39-6.74-14.58-14.26-20.94-22.73-16.44-44-31.1-64.24-37.55-28-9.59-56.35,9.32-29.39,41.21,11.44,11.46,22.94-2.78,30.55-5.44,6.58-3.64,10.42,4.16,7.65,13.82-6.77,17.12-29.68,21.9-45.68,7.22-31.2-34-23.89-82.91,26.45-78.27,30,3.24,62.89,30.49,95.1,56.21a38.07,38.07,0,0,1,10.6,17.43"/><path class="cls-2" d="M524.28,273c-2.17-7.39-6.74-14.58-14.26-20.94-22.73-16.44-44-31.1-64.24-37.55-28-9.59-56.35,9.32-29.39,41.21,11.44,11.46,22.94-2.78,30.55-5.44,6.58-3.64,10.42,4.16,7.65,13.82-6.77,17.12-29.68,21.9-45.68,7.22-31.2-34-23.89-82.91,26.45-78.27,30,3.24,62.89,30.49,95.1,56.21a38.07,38.07,0,0,1,10.6,17.43"/><text class="cls-9" transform="translate(115.08 715.86)">4</text><text class="cls-9" transform="translate(741.01 715.86)">4</text><circle class="cls-10" cx="174.88" cy="339.35" r="14.89"/><circle class="cls-10" cx="148.49" cy="385.5" r="6.5"/><circle class="cls-10" cx="267.24" cy="392.25" r="42.25"/><circle class="cls-10" cx="696.1" cy="857.11" r="9.11"/><circle class="cls-10" cx="626.24" cy="866.25" r="38.25"/><circle class="cls-10" cx="692.99" cy="918" r="6"/><line class="cls-2" x1="815.99" y1="180" x2="827.99" y2="155.23"/><line class="cls-2" x1="787.99" y1="178" x2="779.91" y2="155.23"/><line class="cls-2" x1="821.99" y1="212" x2="833.99" y2="210"/><line class="cls-2" x1="560.05" y1="878" x2="529.91" y2="894"/><line class="cls-2" x1="568.33" y1="904.5" x2="560.05" y2="938"/><line class="cls-2" x1="568.33" y1="848" x2="548.78" y2="828"/></g></svg>