<svg xmlns="http://www.w3.org/2000/svg" viewBox="0 0 1080 1080"><defs><style>.cls-1{fill:#d3d3d3;}.cls-2{fill:#e2e2e2;}.cls-11,.cls-3,.cls-4{fill:none;}.cls-10,.cls-11,.cls-3,.cls-4{stroke:#0e0e0e;}.cls-3,.cls-4{stroke-linecap:round;stroke-linejoin:round;}.cls-10,.cls-11,.cls-3{stroke-width:3px;}.cls-4{stroke-width:9px;}.cls-5{font-size:92.48px;}.cls-5,.cls-6,.cls-7,.cls-8{fill:#727272;}.cls-10,.cls-5,.cls-6,.cls-7,.cls-8{font-family:Nunito-Bold, Nunito;font-weight:700;}.cls-6{font-size:65.81px;}.cls-10,.cls-7{font-size:137.65px;}.cls-8{font-size:68.94px;}.cls-9{fill:#ababab;}.cls-10{fill:#fff;}.cls-10,.cls-11{stroke-miterlimit:10;}</style></defs><title>Add product</title><g id="Add_Product" data-name="Add Product"><path class="cls-1" d="M317.66,588.18l81-166.66a18.86,18.86,0,0,1,25.2-8.71L587,492.12a18.86,18.86,0,0,1,9.58,10.8l83.54,241.61a18.86,18.86,0,0,1-11.66,24L423.42,853.26a18.86,18.86,0,0,1-24-11.66l-82.64-239A18.86,18.86,0,0,1,317.66,588.18Z"/><circle class="cls-2" cx="227.62" cy="390.15" r="14.22"/><circle class="cls-2" cx="210.13" cy="448.79" r="17.49"/><circle class="cls-2" cx="268.7" cy="443.18" r="11.88"/><circle class="cls-2" cx="864.84" cy="816.79" r="14.22" transform="translate(-319.91 709.67) rotate(-38.2)"/><circle class="cls-2" cx="860.57" cy="882.87" r="11.88" transform="translate(-361.68 721.18) rotate(-38.2)"/><path class="cls-3" d="M366.66,511.86l88.11-181.23a20.51,20.51,0,0,1,27.41-9.48L659.59,407.4A20.51,20.51,0,0,1,670,419.15l90.84,262.74A20.51,20.51,0,0,1,748.17,708L481.67,800.11a20.51,20.51,0,0,1-26.08-12.68l-89.86-259.9A20.51,20.51,0,0,1,366.66,511.86Z"/><circle class="cls-3" cx="495.83" cy="409.62" r="28.5" transform="translate(-106.63 184.51) rotate(-19.07)"/><path class="cls-4" d="M498.49,410.9c-70-257.34-187-148.7-93.61-6.57"/><text class="cls-5" transform="translate(777.86 271.2)">+</text><text class="cls-6" transform="translate(850.86 319.08)">+</text><text class="cls-7" transform="translate(761.98 398.35)">+</text><text class="cls-5" transform="translate(213.86 840.51)">+</text><text class="cls-6" transform="translate(286.86 888.39)">+</text><text class="cls-8" transform="translate(299.98 734.23)">+</text><circle class="cls-9" cx="698.8" cy="564.94" r="73.61"/><text class="cls-10" transform="translate(659.32 604.35)">+</text><circle class="cls-11" cx="698.8" cy="564.94" r="73.61"/></g></svg>