<svg id="Add_Card" data-name="Add Card" xmlns="http://www.w3.org/2000/svg" viewBox="0 0 1080 1080"><defs><style>.cls-1{fill:#e2e2e2;}.cls-10,.cls-13,.cls-2{fill:#fff;}.cls-11,.cls-12,.cls-14,.cls-3,.cls-6{fill:none;}.cls-11,.cls-3{stroke:#231f20;}.cls-12,.cls-3,.cls-6{stroke-linecap:round;}.cls-12,.cls-3{stroke-linejoin:round;}.cls-10,.cls-11,.cls-12,.cls-13,.cls-14,.cls-3{stroke-width:3px;}.cls-4{fill:#8c8c8c;}.cls-5{fill:#d3d3d3;}.cls-6{stroke:#8c8c8c;stroke-width:9px;}.cls-10,.cls-11,.cls-13,.cls-14,.cls-6{stroke-miterlimit:10;}.cls-7{font-size:92.48px;}.cls-7,.cls-8{fill:#727272;}.cls-10,.cls-13,.cls-7,.cls-8{font-family:Nunito-Bold, Nunito;font-weight:700;}.cls-10,.cls-13,.cls-8{font-size:137.65px;}.cls-9{fill:#ababab;}.cls-10{stroke:#000;}.cls-12,.cls-13,.cls-14{stroke:#0e0e0e;}</style></defs><title>Add Card</title><circle class="cls-1" cx="713.76" cy="454.31" r="211"/><rect class="cls-2" x="329.36" y="429.61" width="448.11" height="289.72" rx="10.97" ry="10.97"/><rect class="cls-3" x="329.36" y="429.61" width="448.11" height="289.72" rx="10.97" ry="10.97"/><circle class="cls-4" cx="713.76" cy="493.03" r="32.91"/><circle class="cls-5" cx="675.04" cy="493.03" r="32.91" transform="translate(-150.91 621.73) rotate(-45)"/><rect class="cls-5" x="369.6" y="525.03" width="70.01" height="42.59" rx="5.9" ry="5.9"/><line class="cls-6" x1="369.6" y1="671.69" x2="434.56" y2="671.69"/><line class="cls-6" x1="470.08" y1="671.69" x2="535.05" y2="671.69"/><line class="cls-6" x1="569.48" y1="671.69" x2="634.45" y2="671.69"/><line class="cls-6" x1="672.27" y1="671.69" x2="737.23" y2="671.69"/><circle class="cls-1" cx="871.79" cy="746.1" r="14.22"/><circle class="cls-1" cx="854.3" cy="804.73" r="17.49"/><circle class="cls-1" cx="912.87" cy="799.13" r="11.88"/><circle class="cls-1" cx="168" cy="657.76" r="14.22" transform="translate(-444.67 365.34) rotate(-50.16)"/><circle class="cls-1" cx="201.81" cy="708.75" r="17.49" transform="translate(-471.67 409.62) rotate(-50.16)"/><circle class="cls-1" cx="235.03" cy="660.19" r="11.88" transform="translate(-422.45 417.68) rotate(-50.16)"/><text class="cls-7" transform="translate(229.88 339.17)">+</text><text class="cls-8" transform="translate(197.52 803.9)">+</text><circle class="cls-9" cx="553.41" cy="704" r="73.61"/><text class="cls-10" transform="translate(513.93 743.4)">+</text><circle class="cls-11" cx="553.41" cy="704" r="73.61"/><circle class="cls-1" cx="713.76" cy="454.31" r="211"/><rect class="cls-2" x="329.36" y="429.61" width="448.11" height="289.72" rx="10.97" ry="10.97"/><rect class="cls-12" x="329.36" y="429.61" width="448.11" height="289.72" rx="10.97" ry="10.97"/><circle class="cls-4" cx="713.76" cy="493.03" r="32.91"/><circle class="cls-5" cx="675.04" cy="493.03" r="32.91" transform="translate(-150.91 621.73) rotate(-45)"/><rect class="cls-5" x="369.6" y="525.03" width="70.01" height="42.59" rx="5.9" ry="5.9"/><line class="cls-6" x1="369.6" y1="671.69" x2="434.56" y2="671.69"/><line class="cls-6" x1="470.08" y1="671.69" x2="535.05" y2="671.69"/><line class="cls-6" x1="569.48" y1="671.69" x2="634.45" y2="671.69"/><line class="cls-6" x1="672.27" y1="671.69" x2="737.23" y2="671.69"/><circle class="cls-1" cx="871.79" cy="746.1" r="14.22"/><circle class="cls-1" cx="854.3" cy="804.73" r="17.49"/><circle class="cls-1" cx="912.87" cy="799.13" r="11.88"/><circle class="cls-1" cx="168" cy="657.76" r="14.22" transform="translate(-444.67 365.34) rotate(-50.16)"/><circle class="cls-1" cx="201.81" cy="708.75" r="17.49" transform="translate(-471.67 409.62) rotate(-50.16)"/><circle class="cls-1" cx="235.03" cy="660.19" r="11.88" transform="translate(-422.45 417.68) rotate(-50.16)"/><text class="cls-7" transform="translate(229.88 339.17)">+</text><text class="cls-8" transform="translate(197.52 803.9)">+</text><circle class="cls-9" cx="553.41" cy="704" r="73.61"/><text class="cls-13" transform="translate(513.93 743.4)">+</text><circle class="cls-14" cx="553.41" cy="704" r="73.61"/></svg>