<svg xmlns="http://www.w3.org/2000/svg" viewBox="0 0 1080 1080"><defs><style>.cls-1{fill:#d3d3d3;}.cls-2{fill:#ababab;}.cls-3,.cls-8{fill:none;stroke-linecap:round;stroke-linejoin:round;}.cls-3{stroke:#0e0e0e;stroke-width:3px;}.cls-4{fill:#0e0e0e;}.cls-5{fill:#e2e2e2;}.cls-6{fill:#fff;}.cls-7{fill:#8c8c8c;}.cls-8{stroke:#d3d3d3;stroke-width:11px;}</style></defs><title>Card</title><g id="Card"><path class="cls-1" d="M885.15,517h34a12,12,0,0,1,12,12V879a12,12,0,0,1-12,12h-350a12,12,0,0,1-12-12V845A328,328,0,0,1,885.15,517Z"/><rect class="cls-2" x="168.02" y="325.7" width="448.11" height="302.14" rx="11.21" ry="11.21"/><rect class="cls-3" x="205.7" y="315.75" width="448.11" height="289.72" rx="10.97" ry="10.97"/><rect class="cls-4" x="205.7" y="351.15" width="448.11" height="56.85"/><circle class="cls-5" cx="733.25" cy="296.24" r="34.02"/><circle class="cls-5" cx="815.3" cy="346.27" r="16.41"/><line class="cls-3" x1="798.89" y1="250.61" x2="815.7" y2="200.18"/><line class="cls-3" x1="815.3" y1="262.22" x2="826.51" y2="250.21"/><line class="cls-3" x1="824.91" y1="277.43" x2="866.53" y2="267.82"/><rect class="cls-6" x="319.36" y="440.05" width="448.11" height="289.72" rx="10.97" ry="10.97"/><circle class="cls-5" cx="207.05" cy="790.64" r="29.5" transform="translate(-573.27 547.6) rotate(-58.03)"/><circle class="cls-5" cx="247.37" cy="858.24" r="9.5" transform="translate(-611.66 613.6) rotate(-58.03)"/><circle class="cls-5" cx="196.54" cy="861.29" r="11" transform="translate(-638.15 571.92) rotate(-58.03)"/><line class="cls-3" x1="171.69" y1="879.38" x2="154" y2="890.73"/><line class="cls-3" x1="191.2" y1="891.56" x2="186.23" y2="910.85"/><line class="cls-3" x1="170.1" y1="863.05" x2="153.98" y2="852.99"/><rect class="cls-3" x="319.36" y="440.05" width="448.11" height="289.72" rx="10.97" ry="10.97"/><circle class="cls-7" cx="703.76" cy="503.47" r="32.91"/><circle class="cls-1" cx="665.04" cy="503.47" r="32.91" transform="translate(-161.22 617.71) rotate(-45)"/><rect class="cls-1" x="359.6" y="535.47" width="70.01" height="42.59" rx="5.9" ry="5.9"/><line class="cls-8" x1="359.6" y1="682.13" x2="424.56" y2="682.13"/><line class="cls-8" x1="460.08" y1="682.13" x2="525.05" y2="682.13"/><line class="cls-8" x1="559.48" y1="682.13" x2="624.45" y2="682.13"/><line class="cls-8" x1="662.27" y1="682.13" x2="727.23" y2="682.13"/></g></svg>