<svg xmlns="http://www.w3.org/2000/svg" viewBox="0 0 1080 1080"><defs><style>.cls-1,.cls-10,.cls-12,.cls-3{fill:none;}.cls-1,.cls-12,.cls-3,.cls-4,.cls-6,.cls-7{stroke:#636363;}.cls-1,.cls-10,.cls-12,.cls-4,.cls-6,.cls-7,.cls-8,.cls-9{stroke-miterlimit:10;}.cls-1,.cls-12,.cls-3,.cls-4,.cls-6,.cls-7,.cls-8,.cls-9{stroke-width:3px;}.cls-2,.cls-4{fill:#d3d3d3;}.cls-10,.cls-12,.cls-3{stroke-linecap:round;}.cls-3{stroke-linejoin:round;}.cls-5{opacity:0.39;}.cls-6{fill:#cecece;}.cls-7,.cls-9{fill:#fff;}.cls-8{fill:#ababab;}.cls-8,.cls-9{stroke:#0e0e0e;}.cls-10{stroke:#8c8c8c;stroke-width:9px;}.cls-11{fill:#8c8c8c;}</style></defs><title>Card rejected</title><g id="Card_rejected" data-name="Card rejected"><line class="cls-1" x1="380.33" y1="364.91" x2="964.33" y2="364.91"/><rect class="cls-2" x="380.33" y="328.71" width="584" height="30.27" rx="5.99" ry="5.99"/><rect class="cls-1" x="380.33" y="319.51" width="584" height="30.27" rx="5.99" ry="5.99"/><line class="cls-3" x1="896.54" y1="348.45" x2="896.54" y2="871.51"/><line class="cls-3" x1="880.16" y1="141.1" x2="880.16" y2="871.51"/><line class="cls-3" x1="825.06" y1="199.93" x2="825.06" y2="871.51"/><line class="cls-3" x1="808.68" y1="348.45" x2="808.68" y2="871.51"/><line class="cls-3" x1="880.64" y1="356.41" x2="824.58" y2="412.47"/><line class="cls-3" x1="824.58" y1="356.41" x2="880.64" y2="412.47"/><path class="cls-4" d="M836.55,257.43H912a7.89,7.89,0,0,1,7.89,7.89V386.66a7.89,7.89,0,0,1-7.89,7.89H790.68a7.89,7.89,0,0,1-7.89-7.89V311.19A53.76,53.76,0,0,1,836.55,257.43Z" transform="translate(1177.34 -525.35) rotate(90)"/><rect class="cls-4" x="782.79" y="470.18" width="137.12" height="22.59" rx="3.51" ry="3.51"/><g class="cls-5"><line class="cls-1" x1="174.72" y1="554.17" x2="174.72" y2="931.08"/><line class="cls-1" x1="197.33" y1="554.17" x2="197.33" y2="931.08"/><line class="cls-1" x1="205.81" y1="554.17" x2="205.81" y2="931.08"/><line class="cls-1" x1="572.73" y1="554.17" x2="572.73" y2="931.08"/><line class="cls-1" x1="550.12" y1="554.17" x2="550.12" y2="931.08"/><line class="cls-1" x1="541.64" y1="554.17" x2="541.64" y2="931.08"/><rect class="cls-6" x="145.07" y="524.02" width="457.08" height="30.15" rx="7.54" ry="7.54"/><rect class="cls-6" x="145.07" y="697.79" width="457.08" height="30.15" rx="7.54" ry="7.54"/></g><rect class="cls-4" x="782.79" y="662.74" width="137.12" height="22.59" rx="3.51" ry="3.51"/><line class="cls-3" x1="880.64" y1="493.59" x2="824.58" y2="549.65"/><line class="cls-3" x1="824.58" y1="493.59" x2="880.64" y2="549.65"/><line class="cls-3" x1="880.64" y1="413.29" x2="824.58" y2="469.35"/><line class="cls-3" x1="824.58" y1="413.29" x2="880.64" y2="469.35"/><line class="cls-1" x1="880.64" y1="199.93" x2="824.58" y2="255.99"/><line class="cls-1" x1="824.58" y1="199.93" x2="880.64" y2="255.99"/><line class="cls-3" x1="880.64" y1="549.97" x2="824.58" y2="606.03"/><line class="cls-3" x1="824.58" y1="549.97" x2="880.64" y2="606.03"/><line class="cls-3" x1="880.64" y1="606.36" x2="824.58" y2="662.42"/><line class="cls-3" x1="824.58" y1="606.36" x2="880.64" y2="662.42"/><line class="cls-3" x1="880.64" y1="685.66" x2="824.58" y2="741.72"/><line class="cls-3" x1="824.58" y1="685.66" x2="880.64" y2="741.72"/><line class="cls-3" x1="880.64" y1="742.05" x2="824.58" y2="798.11"/><line class="cls-3" x1="824.58" y1="742.05" x2="880.64" y2="798.11"/><line class="cls-3" x1="880.64" y1="798.43" x2="824.58" y2="854.49"/><line class="cls-3" x1="824.58" y1="798.43" x2="880.64" y2="854.49"/><path class="cls-4" d="M776.39,871.51h137a6.55,6.55,0,0,1,6.55,6.55v46.47a6.55,6.55,0,0,1-6.55,6.55H734.94a6.55,6.55,0,0,1-6.55-6.55v-5a48,48,0,0,1,48-48Z"/><polygon class="cls-3" points="880.16 199.93 825.06 199.93 852.01 171.03 880.16 199.93"/><circle class="cls-3" cx="880.16" cy="134.5" r="6.61"/><line class="cls-3" x1="873.56" y1="134.5" x2="852.01" y2="171.03"/><line class="cls-3" x1="873.56" y1="134.5" x2="385.79" y2="319.51"/><rect class="cls-4" x="517" y="349.77" width="75.3" height="27.43" rx="4.09" ry="4.09"/><circle class="cls-7" cx="541.4" cy="363.49" r="7.11"/><circle class="cls-7" cx="568.45" cy="363.49" r="7.11"/><path class="cls-8" d="M150.43,490.58,191,412.9a6.08,6.08,0,0,1,10.75-.07l41.76,77.68a6.08,6.08,0,0,1-5.36,9H155.83A6.08,6.08,0,0,1,150.43,490.58Z"/><path class="cls-9" d="M197.34,474.85h-1c-2.4,0-6.54-2-6.54-4.36L192,436.58a4.37,4.37,0,0,1,4.36-4.36h1a4.37,4.37,0,0,1,4.36,4.36l2.42,33.92C204.12,472.89,199.73,474.85,197.34,474.85Z"/><circle class="cls-9" cx="196.97" cy="485.8" r="6.6"/><path class="cls-9" d="M316.82,627.4l-192.94,63c-7.1,2.32-10.18,12.37-6.89,22.46L193.81,948.2c3.29,10.09,11.71,16.39,18.81,14.07l192.94-63-50.36-42,13.68-51L337,782.21l41.08-50.13-64.76-41.76Z"/><rect class="cls-2" x="178.44" y="763.54" width="73.63" height="44.79" rx="6.21" ry="6.21" transform="translate(-233.23 105.58) rotate(-18.08)"/><line class="cls-10" x1="226.21" y1="916.59" x2="290.57" y2="895.59"/><line class="cls-10" x1="325.75" y1="884.11" x2="357.93" y2="873.6"/><line class="cls-3" x1="554.65" y1="523.34" x2="554.65" y2="377.2"/><polyline class="cls-3" points="512.31 565.32 554.55 523.34 592.3 570.4"/><path class="cls-9" d="M490.64,564.31l-18.75,51.42,41.51,64.84-65.07,36.84,15.18,33.68L410.7,797.45l29.55,50.29L610.9,858.31c10.69.66,20-9.2,20.79-22l14.8-239c.79-12.82-7.23-23.76-17.92-24.42Z"/><circle class="cls-11" cx="590.08" cy="623.82" r="29.56" transform="translate(-69.03 1174.21) rotate(-86.46)"/><circle class="cls-2" cx="555.36" cy="621.67" r="29.56" transform="translate(-272.44 523.43) rotate(-41.46)"/><line class="cls-10" x1="427.22" y1="807.66" x2="484.34" y2="811.2"/><line class="cls-10" x1="523.67" y1="813.64" x2="591.24" y2="817.82"/><path class="cls-12" d="M530.57,209.32a27.49,27.49,0,1,1,25.51-17.18"/><path class="cls-12" d="M539.37,155.49a38.13,38.13,0,1,1,75.12,12.93"/><path class="cls-12" d="M601.55,172.24a20.4,20.4,0,1,1,11.91,37"/><line class="cls-1" x1="530.57" y1="209.32" x2="613.46" y2="209.32"/></g></svg>