<svg xmlns="http://www.w3.org/2000/svg" viewBox="0 0 1080 1080"><defs><style>.cls-1{fill:#e2e2e2;}.cls-10,.cls-2{fill:#fff;}.cls-3,.cls-6{fill:none;stroke-linecap:round;}.cls-10,.cls-3,.cls-9{stroke:#0e0e0e;stroke-width:3px;}.cls-3{stroke-linejoin:round;}.cls-4{fill:#8c8c8c;}.cls-5{fill:#d3d3d3;}.cls-6{stroke:#8c8c8c;stroke-width:9px;}.cls-10,.cls-6,.cls-9{stroke-miterlimit:10;}.cls-7{font-size:92.48px;}.cls-7,.cls-8{fill:#727272;font-family:Nunito-Bold, Nunito;font-weight:700;}.cls-8{font-size:137.65px;}.cls-9{fill:#ababab;}</style></defs><title>Card expired</title><g id="Card_Expired" data-name="Card Expired"><circle class="cls-1" cx="695.31" cy="422.31" r="211"/><rect class="cls-2" x="310.92" y="397.61" width="448.11" height="289.72" rx="10.97" ry="10.97"/><rect class="cls-3" x="310.92" y="397.61" width="448.11" height="289.72" rx="10.97" ry="10.97"/><circle class="cls-4" cx="695.31" cy="461.03" r="32.91"/><circle class="cls-5" cx="656.59" cy="461.03" r="32.91" transform="translate(-133.69 599.32) rotate(-45)"/><rect class="cls-5" x="351.15" y="493.03" width="70.01" height="42.59" rx="5.9" ry="5.9"/><line class="cls-6" x1="351.15" y1="639.69" x2="416.12" y2="639.69"/><line class="cls-6" x1="451.64" y1="639.69" x2="516.6" y2="639.69"/><line class="cls-6" x1="551.04" y1="639.69" x2="616.01" y2="639.69"/><line class="cls-6" x1="653.82" y1="639.69" x2="718.79" y2="639.69"/><circle class="cls-1" cx="853.34" cy="714.1" r="14.22"/><circle class="cls-1" cx="835.85" cy="772.73" r="17.49"/><circle class="cls-1" cx="894.43" cy="767.13" r="11.88"/><circle class="cls-1" cx="181.91" cy="701.18" r="14.22" transform="translate(-473.01 391.62) rotate(-50.16)"/><circle class="cls-1" cx="215.72" cy="752.17" r="17.49" transform="translate(-500.01 435.9) rotate(-50.16)"/><circle class="cls-1" cx="248.94" cy="703.61" r="11.88" transform="translate(-450.79 443.96) rotate(-50.16)"/><text class="cls-7" transform="translate(200.77 279.83) rotate(45)">+</text><text class="cls-8" transform="translate(195.57 806.59) rotate(45)">+</text><path class="cls-9" d="M460.15,732.37l65.17-124.88a9.78,9.78,0,0,1,17.29-.11l67.13,124.88a9.78,9.78,0,0,1-8.61,14.41H468.82A9.78,9.78,0,0,1,460.15,732.37Z"/><path class="cls-10" d="M535.56,707.09H534c-3.86,0-10.52-3.15-10.52-7L527,645.56a7,7,0,0,1,7-7h1.56a7,7,0,0,1,7,7l3.89,54.52C546.46,703.94,539.41,707.09,535.56,707.09Z"/><circle class="cls-10" cx="534.97" cy="724.7" r="10.62"/></g></svg>