<svg xmlns="http://www.w3.org/2000/svg" viewBox="0 0 1080 1080"><defs><style>.cls-1{fill:#d3d3d3;}.cls-2{fill:#e2e2e2;}.cls-3,.cls-6{fill:none;stroke-linecap:round;stroke-linejoin:round;stroke-width:3px;}.cls-3{stroke:#0e0e0e;}.cls-4{fill:#ababab;}.cls-5{font-size:59.91px;fill:#0e0e0e;font-family:Nunito-ExtraBold, Nunito;font-weight:700;letter-spacing:0.3em;}.cls-6{stroke:#231f20;}</style></defs><title>Check your inbox</title><g id="Check_your_inbox" data-name="Check your inbox"><path class="cls-1" d="M886.31,544.13h34a12,12,0,0,1,12,12v350a12,12,0,0,1-12,12h-350a12,12,0,0,1-12-12v-34A328,328,0,0,1,886.31,544.13Z"/><circle class="cls-2" cx="283.23" cy="227.49" r="14.22"/><circle class="cls-2" cx="265.74" cy="286.12" r="17.49"/><circle class="cls-2" cx="324.31" cy="280.52" r="11.88"/><path class="cls-3" d="M478.87,575.69V355.37c0-27.51-39.1-45.32-72.09-32.83h0c-16.74,6.34-27.23,19.16-27.08,33.12l.21,19.78.71,66.17"/><line class="cls-3" x1="597.08" y1="302.76" x2="420.83" y2="318.47"/><path class="cls-3" d="M479.52,575.69l265.83-66.44V346.69c0-29.57-23.88-53.82-58.5-51.93l-66.06,5.89"/><polyline class="cls-4" points="629.81 300.74 629.81 256.69 664.81 253.19 664.81 227.69 605.31 227.69 606.08 302.76 609.31 471.19 634.93 467.68 629.81 300.74"/><polyline class="cls-3" points="620.81 300.74 620.81 256.69 655.81 253.19 655.81 227.69 596.31 227.69 597.08 302.76 600.31 471.19 625.93 467.68 620.81 300.74"/><line class="cls-3" x1="584.1" y1="549.29" x2="584.1" y2="917.23"/><line class="cls-3" x1="604.54" y1="545.02" x2="604.54" y2="917.23"/><line class="cls-3" x1="638.77" y1="537.89" x2="638.77" y2="917.23"/><circle class="cls-3" cx="363.23" cy="826.17" r="59.99" transform="translate(-388.02 326.06) rotate(-32.62)"/><text class="cls-5" transform="matrix(0.84, -0.54, 0.54, 0.84, 333.87, 853.68)">...</text><circle class="cls-2" cx="901.32" cy="395.44" r="17.49"/><circle class="cls-2" cx="243.82" cy="767.14" r="14.22" transform="translate(-260.78 139.97) rotate(-21.19)"/><circle class="cls-2" cx="184.12" cy="669.86" r="17.49" transform="translate(-229.65 111.82) rotate(-21.19)"/><line class="cls-3" x1="184.12" y1="559.92" x2="156.81" y2="554.91"/><line class="cls-3" x1="211.49" y1="599.6" x2="201.61" y2="622.79"/><line class="cls-3" x1="170.46" y1="591.1" x2="146.81" y2="611.19"/><line class="cls-3" x1="417.93" y1="286.12" x2="429.29" y2="258.44"/><line class="cls-3" x1="388.37" y1="286.12" x2="383.83" y2="272.28"/><line class="cls-3" x1="448.4" y1="292.4" x2="464.88" y2="280.52"/><rect class="cls-1" x="296.38" y="452.02" width="171.41" height="114.27"/><rect class="cls-6" x="286.97" y="442.12" width="171.41" height="116.09"/><polyline class="cls-6" points="286.97 442.12 369.58 525.23 458.38 442.12"/><line class="cls-6" x1="458.38" y1="558.21" x2="401.51" y2="495.35"/><line class="cls-6" x1="286.97" y1="558.21" x2="341.35" y2="496.82"/><rect class="cls-3" x="252.5" y="558.41" width="226.37" height="18.27" rx="1.79" ry="1.79"/></g></svg>