<svg id="Connection_lost_1" data-name="Connection lost 1" xmlns="http://www.w3.org/2000/svg" viewBox="0 0 1080 1080"><defs><style>.cls-1,.cls-10,.cls-12,.cls-6,.cls-7,.cls-8{fill:none;}.cls-1,.cls-10,.cls-6,.cls-7,.cls-8{stroke:#0e0e0e;}.cls-1,.cls-10,.cls-12,.cls-8{stroke-miterlimit:10;}.cls-1,.cls-10,.cls-12,.cls-6{stroke-width:3px;}.cls-2{fill:#ababab;}.cls-3{fill:#d3d3d3;}.cls-4{fill:#0e0e0e;}.cls-5{fill:#231f20;}.cls-10,.cls-6{stroke-linecap:round;}.cls-6,.cls-7{stroke-linejoin:round;}.cls-7,.cls-8{stroke-width:6px;}.cls-9{fill:#fff;}.cls-11{fill:#e2e2e2;}.cls-12{stroke:#231f20;}</style></defs><title>Connection Lost</title><circle class="cls-1" cx="921.15" cy="795.11" r="70.76" transform="translate(46.7 1641.32) rotate(-84.86)"/><path class="cls-1" d="M968.76,847.46c-28.18-31.35-54.5-71-79.73-115.4"/><path class="cls-1" d="M977.68,837.69c-28.06-31.57-52.6-69.24-75-110.9"/><path class="cls-1" d="M985.25,825.12c-26.05-28.06-47-62.55-65.09-101.14"/><path class="cls-1" d="M989.94,811.7c-21.37-25.39-39.45-54.58-55.25-86.42"/><path class="cls-1" d="M992.17,795.45c-13.91-20.08-27.64-41.47-40.66-64.27"/><path class="cls-1" d="M945,818.66c-14.41,13.34-22.67,27.72-30.15,46.94"/><path class="cls-1" d="M935.51,805.66c-16.35,17.14-26.76,34.48-36.88,56.55"/><path class="cls-1" d="M955.54,831.14c-10.66,10-17.47,20.51-22.8,33.8"/><path class="cls-1" d="M964,842.35s-7.9,8.74-9.71,15.28"/><path class="cls-1" d="M926.51,791.75c-17.88,17.54-30.28,37.82-42.64,63.53"/><path class="cls-1" d="M892.07,840.1c-8.7-1.33-15.44-.77-24.45,1.3"/><path class="cls-1" d="M900,824.33c-16.06-2.66-26.59-1.36-42.06,2.58"/><path class="cls-1" d="M910.37,809.84c-21.51-2.73-37.81-1.51-58,2.07"/><path class="cls-1" d="M923.27,795.31c-25.39-4.74-48.7-4.72-73.27.79"/><path class="cls-1" d="M917.74,780.13a239.69,239.69,0,0,0-66.38.91"/><path class="cls-1" d="M911,768.63c-18.45-4.85-35.07-4.23-55.33-.38"/><path class="cls-1" d="M903.79,757.22c-13.46-4.39-26-4.16-41.8-1"/><path class="cls-1" d="M897.49,746.46a43.18,43.18,0,0,0-25.95-1.81"/><path class="cls-2" d="M685.8,431.33l38.28-59.71,8,88.85C718.56,446,699.37,435.44,685.8,431.33Z"/><path class="cls-2" d="M748.61,581.36l54.63,34-108.85,8C713,617.73,744.68,595,748.61,581.36Z"/><path class="cls-3" d="M592.05,454.13C770,420,825.5,629,620,640.44c-201.25,11.7-387.74,11.93-377.63-140.61,11.82-92.15,102.46-161,193-117.43C486,409.5,494.47,468.09,592.05,454.13Z"/><path class="cls-1" d="M419.17,339.87q5.07,2.17,10.15,4.83c53.33,31,62.27,98,165.11,82,187.51-39,246,200,29.48,213.06-212.1,13.38-408.63,13.64-398-160.8,7.45-63.07,44.66-116.6,93.79-138.74"/><path class="cls-1" d="M686.61,431.26l35.77-60.14a4.36,4.36,0,0,1,8.08,1.83l8.85,95.44"/><path class="cls-1" d="M752.12,574.28l55.33,35.59a2.94,2.94,0,0,1-1.34,5.4l-113.31,9.88"/><line class="cls-1" x1="726.49" y1="454.91" x2="719.39" y2="376.15"/><line class="cls-1" x1="745.42" y1="585.2" x2="795.63" y2="616.18"/><path class="cls-1" d="M510.32,415.53c21.89,23.44,26.72,46.21,5.39,68-23.23,24.2,2,41.62,25,29.18,30.9-21.44,36.52-51,27.39-83.56"/><path class="cls-1" d="M515.71,644.72c24.06-29.61,41.54-58.92,14.52-86.11-16.08-18.09,1.12-40,27-29.26,35.29,16.08,44.22,65.89,23.47,112.94"/><path class="cls-1" d="M449.8,320.25l-92.43,59.22c-11,6-29.32-4.43-35.32-15.43h0c-6-11-3.25-35.81,7.75-41.81l98.17-42a22.85,22.85,0,0,1,30.91,9.08h0A22.85,22.85,0,0,1,449.8,320.25Z"/><rect class="cls-4" x="347.29" y="316.37" width="68.17" height="30.37" rx="15.19" ry="15.19" transform="translate(-109.79 212.68) rotate(-27.4)"/><rect class="cls-1" x="421.9" y="287.07" width="13.27" height="6.64" rx="3.32" ry="3.32" transform="translate(-40.58 509.24) rotate(-59.13)"/><rect class="cls-1" x="434.42" y="310.55" width="13.27" height="6.64" rx="3.32" ry="3.32" transform="translate(811.92 708.22) rotate(-168.68)"/><rect class="cls-1" x="437.13" y="292.55" width="6.48" height="12.95" rx="3.24" ry="3.24" transform="translate(501.85 -229.71) rotate(62.45)"/><path class="cls-1" d="M444.11,538.2,338.46,508.4c-11.79-4.24-16.15-24.87-11.91-36.66h0c4.24-11.79,24.62-26.2,36.41-22l96.56,45.54a22.85,22.85,0,0,1,13.73,29.14h0A22.85,22.85,0,0,1,444.11,538.2Z"/><rect class="cls-4" x="356.13" y="479.35" width="68.17" height="30.37" rx="15.19" ry="15.19" transform="translate(203.15 -107) rotate(21)"/><rect class="cls-1" x="445.68" y="499.16" width="13.27" height="6.64" rx="3.32" ry="3.32" transform="translate(-85.67 93.03) rotate(-10.73)"/><rect class="cls-1" x="436.44" y="524.1" width="13.27" height="6.64" rx="3.32" ry="3.32" transform="translate(211.01 1175.99) rotate(-120.28)"/><rect class="cls-1" x="450.48" y="510.58" width="6.48" height="12.95" rx="3.24" ry="3.24" transform="translate(1098.41 277.12) rotate(110.85)"/><path class="cls-3" d="M227.13,528.48c-77.82,13.93-121.19,132.86-40.57,178.75,59.54,31.77,305.81-1.88,303.34,16.08-.87,16.58-92,17.77-142.11,22.78-70.72,4.82-60.09,36.39-9.56,38.86,181.44,3.61,245.55-59.35,176.62-94.49C479.62,675,355.66,677.92,250,681c-75.4-.66-61.28-107-15.72-123.12"/><path class="cls-1" d="M225.52,513.3C149.2,527.22,106.67,646.15,185.73,692c58.39,31.77,299.9-1.88,297.48,16.08-.85,16.58-90.19,17.77-139.36,22.78-69.35,4.82-58.93,36.39-9.38,38.86,177.93,3.61,240.8-59.35,173.21-94.49-34.55-15.49-156.12-12.54-259.74-9.47-73.94-.66-60.09-107-15.42-123.12"/><circle class="cls-1" cx="690.51" cy="474.02" r="28.05"/><circle class="cls-4" cx="690.51" cy="474.02" r="20.15"/><circle class="cls-1" cx="697.07" cy="576.11" r="28.05"/><circle class="cls-4" cx="697.07" cy="576.11" r="20.15"/><path class="cls-5" d="M673.09,514.38l9.63,9.63a1.77,1.77,0,0,1,0,2.49l-9.63,9.63a1.77,1.77,0,0,1-2.49,0V514.38A1.77,1.77,0,0,1,673.09,514.38Z"/><polyline class="cls-6" points="629.75 512.36 637 525.25 627.45 538.06"/><path class="cls-6" d="M643.61,485.93c-4.11-29.43-.91-56.25,8.22-80.94"/><path class="cls-6" d="M635.47,485.18c-9.39-34.26-7.92-66.15,1.92-96.21"/><path class="cls-6" d="M627,485.23c-17.2-38.45-18.82-75.93-9.06-112.7"/><path class="cls-6" d="M647.27,570.42c-4.11,29.43-.91,56.25,8.22,80.94"/><path class="cls-6" d="M639.13,571.17c-9.39,34.26-7.92,66.15,1.92,96.21"/><path class="cls-6" d="M630.63,571.12c-17.2,38.45-18.82,75.93-9.06,112.7"/><path class="cls-7" d="M233.68,443.75c-13.68-2.5-59.1,42.27-90.23,20C36,389.63,15.42,756.16,225.52,731.95c113.79-12.25,175.84-3.86,134.33-63.2C325,610.89,511.72,496.3,536.26,527.85"/><path class="cls-8" d="M898.08,632.86c-62.83,2.05-82.75,10.77-71.47,24.32,54.11,85.72-35.74,4.5-243.89,93.93C461.21,786.9,358.48,626.39,450.93,466c93-131.05,39.57-187.48,7.95-177.65"/><rect class="cls-1" x="898.08" y="619.49" width="9.26" height="26" rx="4.01" ry="4.01"/><rect class="cls-1" x="907.34" y="614.41" width="40.61" height="33.86" rx="8.43" ry="8.43"/><path class="cls-1" d="M947.95,622.69h13.18a2,2,0,0,1,2,2v0a2,2,0,0,1-2,2H947.95a0,0,0,0,1,0,0v-3.92A0,0,0,0,1,947.95,622.69Z"/><path class="cls-1" d="M947.95,637.06h13.18a2,2,0,0,1,2,2v0a2,2,0,0,1-2,2H947.95a0,0,0,0,1,0,0v-3.92A0,0,0,0,1,947.95,637.06Z"/><rect class="cls-2" x="873.06" y="489.14" width="89.41" height="71.18" rx="10.05" ry="10.05"/><rect class="cls-1" x="890.85" y="479.87" width="76.63" height="76.63" rx="10.72" ry="10.72"/><rect class="cls-1" x="898.15" y="487.17" width="62.03" height="62.03" rx="8.68" ry="8.68"/><circle class="cls-1" cx="918.73" cy="517.98" r="4.88"/><circle class="cls-1" cx="938.24" cy="517.98" r="4.88"/><circle class="cls-1" cx="929.17" cy="518.19" r="24.23"/><circle class="cls-9" cx="699.11" cy="484.42" r="4.72"/><circle class="cls-9" cx="706.62" cy="584.61" r="4.72"/><line class="cls-10" x1="126.63" y1="224.34" x2="160.38" y2="223.5"/><line class="cls-10" x1="140.89" y1="256.86" x2="165.92" y2="239.68"/><circle class="cls-11" cx="217.93" cy="840.49" r="8.82"/><circle class="cls-11" cx="190.64" cy="879.99" r="18.46"/><circle class="cls-11" cx="188.59" cy="227.05" r="13.14"/><circle class="cls-11" cx="209.29" cy="247.75" r="7.56"/><circle class="cls-11" cx="157.91" cy="839.11" r="5.61"/><circle class="cls-11" cx="869.09" cy="174.1" r="17.45"/><circle class="cls-11" cx="815.14" cy="252.2" r="36.5"/><circle class="cls-11" cx="750.42" cy="171.38" r="11.1"/><line class="cls-10" x1="143.45" y1="202.19" x2="162.24" y2="213.91"/><path class="cls-12" d="M883.87,855.28c1.44,26.76-145.1-5.28-151.26,27.16"/><polyline class="cls-6" points="995.16 440.57 983.58 458.16 979.31 452.47 968.42 470.69"/><polyline class="cls-6" points="961.23 428.88 963.5 449.81 956.58 448.14 959.78 469.13"/><polyline class="cls-6" points="1011.35 467.23 991.91 475.33 991.56 468.22 972.33 477.23"/><line class="cls-10" x1="242" y1="879.99" x2="273.13" y2="879.99"/><line class="cls-10" x1="234" y1="898.45" x2="257.57" y2="915"/></svg>