<svg xmlns="http://www.w3.org/2000/svg" viewBox="0 0 1080 1080"><defs><style>.cls-1,.cls-5,.cls-6,.cls-7{fill:none;stroke:#0e0e0e;}.cls-1,.cls-6{stroke-linecap:round;stroke-linejoin:round;}.cls-1,.cls-7{stroke-width:3px;}.cls-2{fill:#d3d3d3;}.cls-3{fill:#0e0e0e;}.cls-4{fill:#ababab;}.cls-5,.cls-7{stroke-miterlimit:10;}.cls-5{stroke-width:9px;}.cls-8{fill:#e2e2e2;}.cls-9{fill:#fff;}</style></defs><title>Connection Lost_1</title><g id="Connectlost_2" data-name="Connectlost 2"><path class="cls-1" d="M495.37,347.17c34.12-41.87,106.43-41.95,140.74-.23"/><ellipse class="cls-2" cx="572.22" cy="652.47" rx="109.78" ry="99.7"/><path class="cls-1" d="M661.48,426.87c-12.87,58.43,43.72,145.66,49.05,224.86.78,131.94-279,135.94-279,0,0-72.24,48.34-155.42,37.71-221.67"/><path class="cls-1" d="M431.53,662.34c-41-17.48-62-42.67-81.11-87.67-12.45-32.5-58.7,3.5-83.7,42.33-6.25,9.42-20.25,1.17-4.67-24.67,30.92-46.76,81.32-69.17,100-40.92,11.92,17.75,32.17,83,69.74,90.9"/><path class="cls-1" d="M506.1,741.48,463.77,762.1a10.5,10.5,0,0,1-14-4.83h0a10.5,10.5,0,0,1,4.83-14l26.86-13.08"/><path class="cls-1" d="M670.32,726.24l26.12,9a10.5,10.5,0,0,1,6.48,13.31h0A10.5,10.5,0,0,1,689.61,755L645,739.65"/><path class="cls-3" d="M574.43,435.75l-8.05,8.05a1.5,1.5,0,0,1-2.12,0l-8.05-8.05a1.5,1.5,0,0,1,0-2.12h18.22A1.5,1.5,0,0,1,574.43,435.75Z"/><line class="cls-1" x1="546.45" y1="459.17" x2="584.18" y2="459.17"/><rect class="cls-3" x="556.16" y="459.17" width="8.57" height="10.17" rx="1.54" ry="1.54"/><rect class="cls-3" x="566.75" y="459.17" width="8.57" height="10.17" rx="1.54" ry="1.54"/><path class="cls-1" d="M503.73,336.79a74,74,0,1,0-84.89,73.55c18.8,2.8,36.27-2.74,51-12.46"/><path class="cls-1" d="M626,336.79a74,74,0,1,1,84.89,73.55c-18.8,2.8-36.27-2.74-51-12.46"/><circle class="cls-4" cx="695.05" cy="351.02" r="47.7"/><circle class="cls-4" cx="433.8" cy="351.02" r="47.7"/><path class="cls-1" d="M495.37,347.17c-18.66,18.19-29,44.77-26.12,82.9"/><path class="cls-1" d="M661.48,426.87q.51-49.1-25.38-79.93"/><path class="cls-1" d="M614.32,437.9a671.93,671.93,0,0,1,134.4-6.76"/><path class="cls-1" d="M614.79,447.61a710,710,0,0,1,104.53,15.07"/><path class="cls-1" d="M615.66,458.63c26.74,3.59,53.2,10.67,79.4,19.79"/><path class="cls-1" d="M521.1,437.9a671.93,671.93,0,0,0-134.4-6.76"/><path class="cls-1" d="M520.63,447.61A710,710,0,0,0,416.1,462.69"/><path class="cls-1" d="M519.77,458.63c-26.74,3.59-53.2,10.67-79.4,19.79"/><path class="cls-5" d="M550.52,492.56c-14.36,4.56-67.55,29.21-86.33,42.74-47.64,36.53-59.14,142.53-125,212.09C254.54,845.34,532.54,780.84,550,846.48,537,897.84,730,793.34,834.59,817.84c64.45,27.24,53.45,69-25.5,66.36-157.25,5.58-331.55,17.64-323-11.7C516.54,836.84,681,771.34,617.83,758.8c-24.29-5.94-83.79,9.54-75.57-7.43"/><path class="cls-5" d="M871.18,610.66c-94.46,4.51-120.46-2.12-224.81-88.16-13.65-11.33-41.28-27.67-58.21-28.67"/><path class="cls-6" d="M529.58,502.88c12.55-9.28,23.79-4.57,34.59-11.76"/><path class="cls-6" d="M536.78,497.46c17.24-1.65,24-11.82,28.44-10"/><path class="cls-6" d="M537.19,497.46c10.1-9.77,17.77-7.39,24.71-12.67"/><path class="cls-6" d="M610.36,503.77c-12.25-9.94-32.56-5.92-39.43-11.76"/><path class="cls-6" d="M601.28,497.21c-18.42-2-25.86-8.06-32.42-8.86"/><path class="cls-6" d="M601.07,497.85c-12.53-9.5-21.46-6.83-28.6-11.64"/><path class="cls-1" d="M534.52,515,503.06,559.1a9.66,9.66,0,0,1-14,1.82l-3.8-3.16a9.66,9.66,0,0,1-.87-14l37.1-39.6a8.52,8.52,0,0,1,12-1.1h0A8.52,8.52,0,0,1,534.52,515Z"/><path class="cls-1" d="M604.61,515l31.45,44.11a9.66,9.66,0,0,0,14,1.82l3.8-3.16a9.66,9.66,0,0,0,.87-14l-37.1-39.6a8.52,8.52,0,0,0-12-1.1h0A8.52,8.52,0,0,0,604.61,515Z"/><rect class="cls-7" x="871.18" y="597.44" width="9.26" height="26" rx="4.01" ry="4.01" transform="translate(-5.48 7.93) rotate(-0.52)"/><rect class="cls-7" x="880.43" y="592.14" width="40.61" height="33.86" rx="8.43" ry="8.43" transform="translate(-5.46 8.16) rotate(-0.52)"/><rect class="cls-3" x="924.99" y="564.46" width="13.33" height="88.67" rx="6.67" ry="6.67"/><rect class="cls-7" x="921.04" y="604.67" width="10.62" height="7.75" rx="3.62" ry="3.62"/><line class="cls-1" x1="231.67" y1="242.46" x2="176.67" y2="218.98"/><line class="cls-1" x1="229.67" y1="258.59" x2="207.44" y2="265.5"/><line class="cls-1" x1="802.83" y1="134.84" x2="807.9" y2="120.84"/><line class="cls-1" x1="822.08" y1="146.84" x2="833.78" y2="120.84"/><line class="cls-1" x1="788.74" y1="137.84" x2="781.05" y2="127.84"/><path class="cls-8" d="M239.28,221.56l17.31-2.15a2.68,2.68,0,0,1,3,2.33l2.15,17.31a2.68,2.68,0,0,1-2.33,3l-22.44-17.49A2.68,2.68,0,0,1,239.28,221.56Z"/><path class="cls-8" d="M246.75,267.26,244.44,255a1.93,1.93,0,0,1,1.53-2.24l12.31-2.32a1.93,1.93,0,0,1,2.24,1.53L249,268.79A1.93,1.93,0,0,1,246.75,267.26Z"/><path class="cls-8" d="M776.66,159.81l29.82-3.7a4.62,4.62,0,0,1,5.14,4l3.7,29.82a4.62,4.62,0,0,1-4,5.14L772.65,165A4.62,4.62,0,0,1,776.66,159.81Z"/><path class="cls-8" d="M716.58,173l-2.32-12.31a1.93,1.93,0,0,1,1.53-2.24l12.31-2.32a1.93,1.93,0,0,1,2.24,1.53l-11.52,16.87A1.93,1.93,0,0,1,716.58,173Z"/><polygon class="cls-2" points="864.86 491.01 862.3 532.11 877.43 527.56 881.83 574.32 883.92 520.41 868.99 525.54 864.86 491.01"/><polygon class="cls-2" points="827.23 572.12 849.43 581.41 849.82 572.18 876.48 578.72 847.12 567.23 847.09 576.46 827.23 572.12"/><ellipse class="cls-3" cx="533.55" cy="397.36" rx="8.01" ry="15.8"/><ellipse class="cls-9" cx="531.94" cy="391.27" rx="2.37" ry="1.93"/><ellipse class="cls-3" cx="595.55" cy="397.36" rx="8.01" ry="15.8"/><ellipse class="cls-9" cx="594.46" cy="391.27" rx="2.37" ry="1.93"/><line class="cls-1" x1="936.82" y1="161.11" x2="936.82" y2="967.8"/><path class="cls-4" d="M238.67,815.79l-84.58,56.52,13.33,59,132.66-30-14.67-64.92C280.53,814.83,264,810.39,238.67,815.79Z"/><path class="cls-1" d="M218.77,848.31l-62.14,14,96.74-64.92q38.55,1.2,43.07,33.33l-42.67,9.64"/><polyline class="cls-1" points="253.76 840.4 296.44 830.76 310.13 890.55 298.25 893.23"/><polyline class="cls-1" points="161.77 885.11 156.63 862.35 218.77 848.31"/><polyline class="cls-1" points="272.56 899.03 170.14 922.18 166.76 907.22"/><ellipse class="cls-1" cx="258.9" cy="817.37" rx="17" ry="6" transform="translate(-173.77 77.15) rotate(-12.73)"/><path class="cls-1" d="M224.32,816.93c4.45-.19,7.61.57,8,2.16.55,2.44-5.7,5.93-14,7.8A40.84,40.84,0,0,1,207.84,828"/><path class="cls-1" d="M161.77,885.11a11.33,11.33,0,1,1,5,22.11"/><circle class="cls-1" cx="223.87" cy="881.64" r="15.33" transform="translate(-188.8 71.01) rotate(-12.73)"/><circle class="cls-1" cx="267.2" cy="875.3" r="6.33" transform="translate(-186.33 80.41) rotate(-12.73)"/><circle class="cls-1" cx="277.71" cy="850.71" r="9.33" transform="translate(-180.66 82.12) rotate(-12.73)"/><circle class="cls-1" cx="187.7" cy="875.83" r="7.33" transform="translate(-188.41 62.9) rotate(-12.73)"/><path class="cls-1" d="M272.69,899c-.42-6.1,4-11.85,10.49-13.32a13.13,13.13,0,0,1,14.91,6.86"/><path class="cls-1" d="M219.1,849.76c-1.18-5.21,5.5-11.15,14.92-13.28s18,.37,19.18,5.58-5.5,11.15-14.92,13.28-18-.37-19.18-5.58"/><line class="cls-1" x1="168.69" y1="780.09" x2="154.09" y2="765.04"/><line class="cls-1" x1="194" y1="789.66" x2="193" y2="763.64"/><line class="cls-1" x1="156.63" y1="815.14" x2="135" y2="810.92"/></g></svg>