<svg width="159" height="124" viewBox="0 0 159 124" fill="none" xmlns="http://www.w3.org/2000/svg">
<path d="M79.7946 121.745C113.255 121.745 140.338 94.913 140.338 61.807C140.338 28.701 113.255 1.96521 79.7946 1.96521C46.4321 1.96521 19.2515 28.7975 19.2515 61.9035C19.2515 95.0095 46.4321 121.745 79.7946 121.745Z" fill="#F1F3FA" stroke="#D6DDE8" stroke-width="2" stroke-miterlimit="10"/>
<path d="M109.625 121.842C100.401 122.131 89.3127 121.842 81.4627 121.745C73.7108 122.035 62.5245 122.131 53.3008 121.842C62.4264 116.726 65.6645 107.171 66.057 100.897H96.672C97.3589 107.074 100.597 116.726 109.625 121.842Z" fill="#F1F3FA" stroke="#D6DDE8" stroke-width="2" stroke-miterlimit="10"/>
<path d="M139.258 20.9794V99.8355C139.258 101.862 137.688 103.31 135.922 103.31H27.5921C25.7277 103.31 24.2559 101.766 24.2559 99.8355V20.9794C24.2559 19.1456 25.8259 17.5048 27.5921 17.5048H135.726C137.786 17.6013 139.258 19.1456 139.258 20.9794Z" fill="white" stroke="#D6DDE8" stroke-width="2" stroke-miterlimit="10"/>
<path d="M139.258 20.9794V88.8323H24.2559V20.9794C24.2559 19.1456 25.8259 17.5048 27.5921 17.5048H135.726C137.786 17.6013 139.258 19.1456 139.258 20.9794Z" fill="white" stroke="#D6DDE8" stroke-width="2" stroke-miterlimit="10"/>
<rect x="32.5581" y="26.6433" width="33.1357" height="24.8662" fill="#F1F3FA"/>
<rect x="73.583" y="26.6433" width="55.2261" height="10.1019" fill="#F1F3FA"/>
<rect x="73.583" y="56.9491" width="55.2261" height="10.1019" fill="#F1F3FA"/>
<rect x="73.583" y="40.6306" width="55.2261" height="4.66242" fill="#F1F3FA"/>
<rect x="73.583" y="70.9363" width="55.2261" height="4.66243" fill="#F1F3FA"/>
<rect x="32.5581" y="56.9491" width="33.1357" height="24.8662" fill="#F1F3FA"/>
<path d="M81.561 98.5806C83.131 98.5806 84.4066 97.4224 84.4066 95.7816C84.4066 94.2373 83.2291 92.9825 81.561 92.9825C79.991 92.9825 78.7153 94.1408 78.7153 95.7816C78.7153 97.3259 79.8928 98.5806 81.561 98.5806Z" fill="#D6DDE8"/>
<path d="M1.98145 122.035H157.019" stroke="#D6DDE8" stroke-width="2" stroke-miterlimit="10" stroke-linecap="round" stroke-linejoin="round"/>
<path d="M11.9899 54.6646C14.2468 54.6646 16.013 52.9272 16.013 50.7073C16.013 48.4873 14.2468 46.75 11.9899 46.75C9.73305 46.75 7.9668 48.4873 7.9668 50.7073C7.9668 52.9272 9.83117 54.6646 11.9899 54.6646Z" fill="#F1F3FA"/>
<path d="M7.96723 41.8276C9.4391 41.8276 10.7147 40.5728 10.7147 39.125C10.7147 37.6772 9.4391 36.4225 7.96723 36.4225C6.49535 36.4225 5.21973 37.6772 5.21973 39.125C5.21973 40.6693 6.49535 41.8276 7.96723 41.8276Z" fill="#F1F3FA"/>
<path d="M151.916 64.606C154.762 64.606 157.019 62.386 157.019 59.587C157.019 56.7879 154.762 54.568 151.916 54.568C149.071 54.568 146.814 56.7879 146.814 59.587C146.814 62.386 149.071 64.606 151.916 64.606Z" fill="#F1F3FA"/>
<path d="M106.719 54.2294C106.719 57.5883 106.15 60.6673 104.871 63.6064C102.03 70.8841 95.9195 76.4824 88.3884 79.0016C85.8307 79.8413 83.1309 80.2612 80.289 80.2612C65.6533 80.2612 53.8594 68.6448 53.8594 54.2294C53.8594 39.8139 65.6533 28.1975 80.289 28.1975C94.9248 28.1975 106.719 39.9538 106.719 54.2294Z" fill="#D6DCE8" stroke="#AAB2C5" stroke-width="2" stroke-miterlimit="10"/>
<path d="M86.2114 50.9437V45.7872C86.2114 42.9745 83.7705 40.6306 80.8415 40.6306C79.377 40.6306 78.0752 41.2556 76.9362 42.1932C75.9598 43.1308 75.3089 44.3808 75.3089 45.9434V51.1C73.8444 52.0375 72.7054 53.1313 71.729 54.6939C70.9154 56.1002 70.4272 57.8191 70.4272 59.5379C70.4272 65.007 74.9835 69.3822 80.6788 69.3822C86.3741 69.3822 90.9304 65.007 90.9304 59.5379C91.0931 55.7877 89.1404 52.6625 86.2114 50.9437ZM81.9806 60.4755V63.1319C81.9806 63.4444 81.6551 63.7569 81.3297 63.7569H80.1906C79.8652 63.7569 79.5397 63.4444 79.5397 63.1319V61.413V60.4755C78.5634 60.0067 78.0752 58.9129 78.2379 57.8191C78.4007 56.8815 79.2143 56.1002 80.1906 55.944C81.8179 55.6315 83.2824 56.8815 83.2824 58.2879C83.2824 59.2254 82.7942 60.0067 81.9806 60.4755ZM83.6078 49.8499C82.6315 49.5374 81.8179 49.3811 80.6788 49.3811C79.7025 49.3811 78.7261 49.5374 77.7498 49.8499V45.9434C77.7498 45.1621 78.0752 44.3808 78.5634 43.9121C79.0516 43.4433 79.8652 43.1308 80.6788 43.1308C82.306 43.1308 83.6078 44.3808 83.6078 45.9434V49.8499Z" fill="white" stroke="#AAB2C5" stroke-width="2" stroke-miterlimit="10"/>
</svg>
