<svg xmlns="http://www.w3.org/2000/svg" viewBox="0 0 1080 1080"><defs><style>.cls-1{fill:#ababab;}.cls-2,.cls-6,.cls-8{fill:none;}.cls-2,.cls-4,.cls-6,.cls-8{stroke:#0e0e0e;}.cls-2,.cls-4{stroke-miterlimit:10;}.cls-2,.cls-4,.cls-6{stroke-width:3px;}.cls-3{fill:#0e0e0e;}.cls-4{fill:#fff;}.cls-5{fill:#e2e2e2;}.cls-6,.cls-8{stroke-linecap:round;stroke-linejoin:round;}.cls-7{fill:#e8e8e8;}.cls-8{stroke-width:6px;}</style></defs><title>Email sent</title><g id="E-mail_sent" data-name="E-mail sent"><polygon class="cls-1" points="270.95 466.05 305.69 803.29 764.56 795.88 788.62 471.15 528.21 270.3 270.95 466.05"/><polygon class="cls-2" points="409.12 286.88 484.79 229.29 745.2 430.14 721.15 754.88 262.28 762.29 227.54 425.04 270.48 392.37 409.12 286.88"/><polygon class="cls-3" points="227.54 425.04 745.2 430.14 536.5 573.32 507.8 545.1 470.38 578.2 227.54 425.04"/><path class="cls-4" d="M305.5,476.59v-218H677.2c-.92,0-.92,216.83,0,216.83L537.52,575l-29.81-29.41-37.4,32.14Z"/><polyline class="cls-2" points="262.28 762.29 507.8 545.1 721.15 754.88"/><line class="cls-2" x1="536.5" y1="573.32" x2="745.2" y2="430.15"/><line class="cls-2" x1="470.38" y1="578.2" x2="227.54" y2="425.04"/><circle class="cls-5" cx="213.2" cy="173.28" r="29.5" transform="translate(-9.64 333.98) rotate(-74.9)"/><circle class="cls-5" cx="160.21" cy="231.49" r="9.5" transform="translate(-105.02 325.86) rotate(-74.9)"/><circle class="cls-5" cx="142.54" cy="183.73" r="11" transform="translate(-71.98 273.49) rotate(-74.9)"/><line class="cls-6" x1="118.02" y1="165.21" x2="102.02" y2="151.57"/><line class="cls-6" x1="112.03" y1="187.41" x2="92.12" y2="188.26"/><line class="cls-6" x1="133.17" y1="158.94" x2="138.12" y2="140.6"/><circle class="cls-5" cx="871.88" cy="804.29" r="42.5"/><circle class="cls-5" cx="809.38" cy="906.79" r="20.5"/><line class="cls-6" x1="928.88" y1="886.29" x2="991.88" y2="907.29"/><line class="cls-6" x1="914.38" y1="906.79" x2="929.38" y2="920.79"/><line class="cls-6" x1="895.38" y1="918.79" x2="907.38" y2="970.79"/><circle class="cls-7" cx="505.22" cy="438.04" r="80"/><circle class="cls-6" cx="491.72" cy="425.04" r="80"/><polyline class="cls-8" points="454.88 425.12 485.1 453.54 528.55 397.04"/></g></svg>