<svg id="Empty_inbox" data-name="Empty inbox" xmlns="http://www.w3.org/2000/svg" viewBox="0 0 1080 1080"><defs><style>.cls-1{fill:#d3d3d3;}.cls-2{fill:#e2e2e2;}.cls-10,.cls-3,.cls-4,.cls-5{fill:none;}.cls-10,.cls-3,.cls-5,.cls-9{stroke:#0e0e0e;}.cls-3,.cls-4{stroke-linecap:round;stroke-linejoin:round;}.cls-10,.cls-3,.cls-4{stroke-width:3px;}.cls-4{stroke:#231f20;}.cls-10,.cls-5,.cls-9{stroke-miterlimit:10;}.cls-11,.cls-6{fill:#0e0e0e;}.cls-7{fill:#fff;}.cls-8{fill:#ababab;}.cls-9{font-size:50.69px;letter-spacing:0.3em;}.cls-11,.cls-9{font-family:Nunito-ExtraBold, Nunito;font-weight:700;}.cls-11{font-size:43.48px;letter-spacing:0.3em;}</style></defs><title>Empty inbox</title><path class="cls-1" d="M911.41,536.74h34a12,12,0,0,1,12,12v350a12,12,0,0,1-12,12h-350a12,12,0,0,1-12-12v-34A328,328,0,0,1,911.41,536.74Z"/><circle class="cls-2" cx="308.33" cy="220.1" r="14.22"/><circle class="cls-2" cx="290.84" cy="278.73" r="17.49"/><circle class="cls-2" cx="349.41" cy="273.13" r="11.88"/><line class="cls-3" x1="406.06" y1="467.96" x2="405.72" y2="434.21"/><path class="cls-3" d="M405,368l-.21-19.78c-.15-14,10.34-26.79,27.08-33.12h0c33-12.48,72.09,5.32,72.09,32.83V568.3l-23.25-5"/><line class="cls-4" x1="622.19" y1="295.37" x2="445.94" y2="311.08"/><path class="cls-4" d="M504.63,568.3l265.83-66.44V339.3c0-29.57-23.88-53.82-58.5-51.93l-66.06,5.89"/><path class="cls-3" d="M480.72,563.34,493,566.23V704.57a44.09,44.09,0,0,1-56.85,42.2h0a44.09,44.09,0,0,1-31.32-42.2l1.54-129"/><path class="cls-3" d="M496.15,566.63l7.83,2V704.57c0,29.57-29.4,50.06-60.94,43.71"/><path class="cls-3" d="M503.67,569c-45.83-19.85-72.83-51.29-77.61-96.38-17.2-32.88-28.2-49.16-32.67-73.68-3.08-38.1,33.1-43.11,49.21-28.37,22.22,16.14,12.35,48.37,35.83,54a70.11,70.11,0,0,1,25.54,1"/><path class="cls-3" d="M478.43,424.61A40.33,40.33,0,0,1,504,414.21"/><path class="cls-3" d="M486.93,521.53c8.79-2,14.73-6.32,17-13.42"/><path class="cls-3" d="M495.08,552.53a15.45,15.45,0,0,0,8.81-3.18"/><ellipse class="cls-5" cx="412.33" cy="397.95" rx="4.08" ry="5.69" transform="translate(-123.43 194.62) rotate(-23.2)"/><ellipse class="cls-6" cx="412.33" cy="397.95" rx="3.43" ry="4.77" transform="translate(-123.43 194.62) rotate(-23.2)"/><circle class="cls-7" cx="412.51" cy="395.17" r="0.96" transform="translate(-156.85 441.64) rotate(-48.44)"/><ellipse class="cls-5" cx="433.66" cy="387.8" rx="4.08" ry="5.69" transform="translate(-117.7 202.2) rotate(-23.2)"/><ellipse class="cls-6" cx="433.66" cy="387.8" rx="3.43" ry="4.77" transform="translate(-117.7 202.2) rotate(-23.2)"/><circle class="cls-7" cx="433.84" cy="385.02" r="0.96" transform="matrix(0.66, -0.75, 0.75, 0.66, -142.07, 454.18)"/><polyline class="cls-3" points="424.11 412.63 432.36 416.39 435.53 406.28"/><path class="cls-8" d="M490,562.42c-52.82-33.44-56.5-60-63.92-78.55L252.48,457.09C229.57,452.16,225,474.44,283,503.41c-16.25,3.42-27,14.52,19.14,30.2-15,5.14-17.27,12.93,15.92,28.11-9.27,5.71-8.05,12.23,24.23,21.13-1.21,4.57.71,12.93,37.13,7.66Z"/><path class="cls-3" d="M490,562.42c-55.35-31.79-61.16-69.07-63.92-90.67L252.48,445C229.57,440,225,462.33,283,491.3c-16.25,3.42-27,14.52,19.14,30.2-15,5.14-17.27,12.93,15.92,28.11-9.27,5.71-8.05,12.23,24.23,21.13-1.21,4.57.71,12.93,37.13,7.66Z"/><line class="cls-3" x1="283" y1="491.3" x2="417.24" y2="499.33"/><line class="cls-3" x1="299.49" y1="522.5" x2="423.11" y2="516.3"/><line class="cls-3" x1="318.05" y1="549.61" x2="434.53" y2="534.71"/><line class="cls-3" x1="342.28" y1="570.74" x2="450.91" y2="551.71"/><polyline class="cls-8" points="654.91 293.35 654.91 249.3 689.91 245.8 689.91 220.3 630.41 220.3 631.18 295.37 634.41 463.8 660.03 460.29 654.91 293.35"/><polyline class="cls-3" points="645.91 293.35 645.91 249.3 680.91 245.8 680.91 220.3 621.41 220.3 622.18 295.37 625.41 463.8 651.03 460.29 645.91 293.35"/><line class="cls-3" x1="609.2" y1="541.89" x2="609.2" y2="909.84"/><line class="cls-3" x1="629.64" y1="537.63" x2="629.64" y2="909.84"/><line class="cls-3" x1="663.88" y1="530.5" x2="663.88" y2="909.84"/><circle class="cls-3" cx="821.22" cy="200.3" r="50.76"/><text class="cls-9" transform="translate(787.77 206.52)">...</text><circle class="cls-2" cx="926.42" cy="388.05" r="17.49"/><circle class="cls-2" cx="268.92" cy="759.75" r="14.22" transform="translate(-256.41 148.55) rotate(-21.19)"/><circle class="cls-2" cx="209.22" cy="662.46" r="17.49" transform="translate(-225.28 120.4) rotate(-21.19)"/><line class="cls-3" x1="209.22" y1="552.53" x2="181.91" y2="547.52"/><line class="cls-3" x1="236.59" y1="592.21" x2="226.72" y2="615.39"/><line class="cls-3" x1="195.57" y1="583.71" x2="171.91" y2="603.8"/><line class="cls-3" x1="443.04" y1="278.73" x2="454.39" y2="251.05"/><line class="cls-3" x1="413.47" y1="278.73" x2="408.93" y2="264.89"/><line class="cls-3" x1="473.51" y1="285.01" x2="489.98" y2="273.13"/><polygon class="cls-8" points="188.57 830.49 254.83 942.9 414.17 866.7 370.5 749.23 247.18 720.74 188.57 830.49"/><polyline class="cls-10" points="185.15 813.73 175.36 832.05 241.62 944.46 400.96 868.26 357.29 750.79 233.96 722.3 216.73 754.58"/><polyline class="cls-10" points="241.62 944.46 292.67 829.09 400.96 868.26"/><line class="cls-10" x1="307.24" y1="834.36" x2="357.29" y2="750.8"/><line class="cls-10" x1="284.89" y1="846.68" x2="175.36" y2="832.05"/><polygon class="cls-6" points="175.36 832.05 357.29 750.79 307.24 834.36 292.67 829.09 284.89 846.68 175.36 832.05"/><circle class="cls-3" cx="176.09" cy="770.18" r="43.54" transform="translate(-315.04 151.33) rotate(-25.56)"/><text class="cls-11" transform="matrix(0.9, -0.43, 0.43, 0.9, 169.84, 792.58)">X</text></svg>