<svg id="Empty_Cart" data-name="Empty Cart" xmlns="http://www.w3.org/2000/svg" viewBox="0 0 1080 1080"><defs><style>.cls-1{fill:#e5e5e5;}.cls-2,.cls-3,.cls-5,.cls-6{fill:none;}.cls-2,.cls-3,.cls-5,.cls-6,.cls-7,.cls-8{stroke:#0e0e0e;}.cls-2,.cls-5,.cls-6,.cls-7{stroke-linecap:round;stroke-linejoin:round;}.cls-2,.cls-3{stroke-width:3px;}.cls-3,.cls-8{stroke-miterlimit:10;}.cls-10,.cls-4,.cls-9{fill:#0e0e0e;}.cls-5{stroke-width:7px;}.cls-6,.cls-7,.cls-8{stroke-width:5px;}.cls-7{fill:#adadad;}.cls-8{font-size:93.45px;fill:#fff;font-family:MyriadPro-Bold, Myriad Pro;font-weight:700;}.cls-9{font-size:78.95px;}.cls-10,.cls-9{font-family:Nunito-Light, Nunito;}.cls-10{font-size:54.87px;}.cls-11{fill:#e2e2e2;}</style></defs><title>Empty cart</title><path class="cls-1" d="M446.76,314.18H801a9.31,9.31,0,0,1,9.3,9.27V783.91c0,5.1-4.19,9.27,15.33,27.28H382.25c-29.75-18-33.94-22.18-33.94-27.28V323.45A9.23,9.23,0,0,1,351,316.9l43.64,13.69Z"/><path class="cls-2" d="M417.85,291H770.92a9.3,9.3,0,0,1,9.27,9.27V760.73a9.3,9.3,0,0,1-9.27,9.27H329a9.3,9.3,0,0,1-9.27-9.27V300.27a9.24,9.24,0,0,1,2.72-6.55"/><line class="cls-2" x1="368.4" y1="309.54" x2="368.4" y2="708.97"/><line class="cls-2" x1="417.85" y1="291" x2="417.85" y2="770"/><polyline class="cls-3" points="322.81 766.93 368.4 708.97 417.85 770"/><polyline class="cls-2" points="322.81 294.08 368.4 309.54 417.85 291"/><circle class="cls-4" cx="616.11" cy="650.64" r="15.84"/><path class="cls-5" d="M488.93,514.28c25.95,24.66,55.57,28.91,91.17,0"/><path class="cls-5" d="M643.44,514.28c25.95,24.66,55.57,28.91,91.17,0"/><circle class="cls-4" cx="543.88" cy="330.6" r="12.07"/><circle class="cls-4" cx="681.4" cy="330.6" r="12.07"/><path class="cls-6" d="M543.88,330.6c0-168.12,137.52-162.32,137.52,0"/><path class="cls-6" d="M464,291c17.86-114.06,113.17-110.81,131.56,0"/><circle class="cls-7" cx="818.84" cy="322.95" r="74.11"/><text class="cls-8" transform="translate(792.91 351.28)">0</text><text class="cls-9" transform="translate(266.62 253.27) rotate(-17.84)">Z</text><text class="cls-10" transform="translate(332.1 282.67) rotate(-17.84)">Z</text><circle class="cls-11" cx="220.8" cy="419.21" r="26.62" transform="matrix(0.26, -0.97, 0.97, 0.26, -241.45, 523.18)"/><circle class="cls-11" cx="172.99" cy="471.73" r="8.57" transform="matrix(0.26, -0.97, 0.97, 0.26, -327.52, 515.86)"/><circle class="cls-11" cx="157.04" cy="428.64" r="9.93" transform="matrix(0.26, -0.97, 0.97, 0.26, -297.71, 468.6)"/><line class="cls-2" x1="134.92" y1="411.92" x2="120.48" y2="399.62"/><line class="cls-2" x1="129.51" y1="431.96" x2="111.55" y2="432.72"/><line class="cls-2" x1="148.59" y1="406.27" x2="153.06" y2="389.71"/><circle class="cls-11" cx="883.08" cy="811.19" r="30.37"/><circle class="cls-11" cx="838.43" cy="884.43" r="14.65"/><line class="cls-2" x1="923.81" y1="869.78" x2="968.83" y2="884.79"/><line class="cls-2" x1="913.45" y1="884.43" x2="924.17" y2="894.43"/><line class="cls-2" x1="899.88" y1="893" x2="908.45" y2="930.16"/></svg>