<svg xmlns="http://www.w3.org/2000/svg" viewBox="0 0 1080 1080"><defs><style>.cls-1{fill:#ababab;}.cls-2,.cls-5,.cls-9{fill:none;}.cls-2,.cls-4,.cls-5,.cls-9{stroke:#0e0e0e;}.cls-2,.cls-4{stroke-miterlimit:10;}.cls-2,.cls-4,.cls-5{stroke-width:3px;}.cls-3{fill:#0e0e0e;}.cls-4,.cls-7{fill:#fff;}.cls-5,.cls-9{stroke-linecap:round;stroke-linejoin:round;}.cls-6{fill:#231f20;}.cls-8{fill:#e2e2e2;}.cls-9{stroke-width:10px;}</style></defs><title>E-mail kosong</title><g id="Email_kosong" data-name="Email kosong"><polygon class="cls-1" points="265.07 460.75 299.81 798 758.68 790.59 782.74 465.86 522.33 265 265.07 460.75"/><polygon class="cls-2" points="403.24 281.58 478.91 224 739.32 424.85 715.27 749.58 256.4 757 221.66 419.75 264.6 387.08 403.24 281.58"/><polygon class="cls-3" points="221.66 419.75 739.32 424.85 530.62 568.03 501.92 539.81 464.5 572.91 221.66 419.75"/><path class="cls-4" d="M299.62,471.3v-218h371.7c-.92,0-.92,216.83,0,216.83L531.64,569.68l-29.81-29.41-37.4,32.14Z"/><polyline class="cls-2" points="256.4 757 501.92 539.81 715.27 749.58"/><line class="cls-2" x1="530.62" y1="568.03" x2="739.32" y2="424.85"/><line class="cls-2" x1="464.5" y1="572.91" x2="221.66" y2="419.75"/><circle class="cls-5" cx="410.82" cy="409.45" r="38.73"/><circle class="cls-6" cx="410.82" cy="409.45" r="29.16"/><circle class="cls-7" cx="427.35" cy="394.66" r="3.48"/><circle class="cls-7" cx="421.26" cy="404.23" r="1.74"/><circle class="cls-5" cx="562.27" cy="409.45" r="38.73"/><circle class="cls-6" cx="562.27" cy="409.45" r="29.16"/><circle class="cls-7" cx="578.8" cy="394.66" r="3.48"/><circle class="cls-7" cx="572.71" cy="404.23" r="1.74"/><path class="cls-5" d="M453.47,493c30.61-18,55.22-11.87,76.6,0"/><circle class="cls-8" cx="207.32" cy="167.99" r="29.5" transform="translate(-8.87 324.39) rotate(-74.9)"/><circle class="cls-8" cx="154.33" cy="226.19" r="9.5" transform="translate(-104.26 316.27) rotate(-74.9)"/><circle class="cls-8" cx="132.49" cy="169.32" r="8.67" transform="translate(-65.5 253.13) rotate(-74.9)"/><line class="cls-5" x1="113.16" y1="154.71" x2="100.54" y2="143.96"/><line class="cls-5" x1="108.43" y1="172.22" x2="92.73" y2="172.89"/><line class="cls-5" x1="125.11" y1="149.77" x2="129.01" y2="135.3"/><circle class="cls-8" cx="866" cy="799" r="42.5"/><circle class="cls-8" cx="803.5" cy="901.5" r="20.5"/><line class="cls-5" x1="923" y1="881" x2="986" y2="902"/><line class="cls-5" x1="908.5" y1="901.5" x2="923.5" y2="915.5"/><line class="cls-5" x1="889.5" y1="913.5" x2="901.5" y2="965.5"/><path class="cls-9" d="M439.55,325.19c-17.7,21.47-42.79,23.53-70.27,19.31"/><path class="cls-9" d="M528.56,325.19c17.7,21.47,42.79,23.53,70.27,19.31"/><path class="cls-5" d="M534.36,481.11c-5.3,7.38-5.11,15.27,1.35,20.35"/><path class="cls-5" d="M449,481.11c5.3,7.38,5.11,15.27-1.35,20.35"/></g></svg>