<svg id="File_not_found" data-name="File not found" xmlns="http://www.w3.org/2000/svg" viewBox="0 0 1080 1080"><defs><style>.cls-1{fill:#bcbcbc;}.cls-2,.cls-3,.cls-7{fill:none;stroke-linecap:round;stroke-linejoin:round;}.cls-2,.cls-7{stroke:#0e0e0e;}.cls-2,.cls-3{stroke-width:3px;}.cls-3{stroke:#231f20;}.cls-4{fill:#f4f4f4;}.cls-5{fill:#0e0e0e;}.cls-6{fill:#fff;}.cls-7{stroke-width:7px;}</style></defs><title>File not found</title><path class="cls-1" d="M235.81,752.37h311a0,0,0,0,1,0,0v77.23A13.41,13.41,0,0,1,533.41,843H235.81a0,0,0,0,1,0,0V752.37A0,0,0,0,1,235.81,752.37Z"/><path class="cls-1" d="M200.57,347.31h35.1a7.25,7.25,0,0,1,7.25,7.25V835.75a7.25,7.25,0,0,1-7.25,7.25h-28a14.34,14.34,0,0,1-14.34-14.34V354.57A7.25,7.25,0,0,1,200.57,347.31Z"/><path class="cls-2" d="M528.06,752.37v54.71a9.76,9.76,0,0,1-9.74,9.74H177.21a9.76,9.76,0,0,1-9.74-9.74V330.75a9.76,9.76,0,0,1,9.74-9.74h65.71"/><path class="cls-1" d="M892.69,687.85,625.76,603.24a204.12,204.12,0,0,0,20.82-47.41l262,79.7a9.08,9.08,0,0,1,6,11.29l-10.65,35A9.08,9.08,0,0,1,892.69,687.85Z"/><polygon class="cls-1" points="530.38 261.99 622.05 353.67 530.38 353.67 530.38 261.99"/><path class="cls-2" d="M603.5,632V750a2.4,2.4,0,0,1-2.39,2.39H245.31a2.4,2.4,0,0,1-2.39-2.39V259a2.4,2.4,0,0,1,2.39-2.39H511.82"/><line class="cls-3" x1="603.5" y1="348.25" x2="603.5" y2="404"/><polygon class="cls-2" points="511.82 256.57 603.5 348.25 511.82 348.25 511.82 256.57"/><circle class="cls-1" cx="492.14" cy="517.48" r="158.44"/><circle class="cls-2" cx="492.14" cy="517.48" r="158.44"/><circle class="cls-4" cx="492.14" cy="517.48" r="128.99"/><circle class="cls-2" cx="492.14" cy="517.48" r="128.99"/><path class="cls-2" d="M896.69,672.85,632.5,593.15c8.17-17.28,14.34-34.73,16.87-53.52L912.6,620.54a9.08,9.08,0,0,1,6,11.29l-10.65,35A9.08,9.08,0,0,1,896.69,672.85Z"/><circle class="cls-2" cx="457.2" cy="509.57" r="20.81"/><circle class="cls-5" cx="457.2" cy="509.57" r="15.29"/><circle class="cls-6" cx="464.08" cy="503.01" r="2.72"/><circle class="cls-2" cx="560.93" cy="509.57" r="20.81"/><circle class="cls-5" cx="560.93" cy="509.57" r="15.29"/><circle class="cls-6" cx="564.93" cy="503.01" r="2.72"/><path class="cls-7" d="M473.73,594.73q38.1-28.17,76.2,0"/><path class="cls-7" d="M418,480c24.21-5.51,41.07-12.47,48.26-21.36"/><path class="cls-7" d="M551.61,461.78c21,13.25,37.84,20.27,49.21,19.08"/><path class="cls-1" d="M395.84,485.46l-11,23.51c-6.75,23.42,28.78,22,21.67,0Z"/><path class="cls-2" d="M391.45,482.74l-11,23.51c-6.75,23.42,28.78,22,21.67,0Z"/><line class="cls-2" x1="268.39" y1="294" x2="436.39" y2="294"/><line class="cls-2" x1="268.39" y1="326.52" x2="361.39" y2="326.52"/><line class="cls-2" x1="268.39" y1="359.05" x2="393.39" y2="359.05"/><line class="cls-2" x1="268.39" y1="721" x2="391.31" y2="721"/><line class="cls-2" x1="268.39" y1="687" x2="329.85" y2="687"/></svg>