<svg xmlns="http://www.w3.org/2000/svg" viewBox="0 0 1080 1080"><defs><style>.cls-1{fill:#ababab;}.cls-2{fill:#e2e2e2;}.cls-10,.cls-3,.cls-4,.cls-5,.cls-6{fill:none;}.cls-10,.cls-3,.cls-4,.cls-5,.cls-6,.cls-8{stroke:#0e0e0e;stroke-linecap:round;}.cls-3,.cls-8{stroke-miterlimit:10;}.cls-3,.cls-4,.cls-5,.cls-6,.cls-8{stroke-width:3px;}.cls-10,.cls-4,.cls-5,.cls-6{stroke-linejoin:round;}.cls-5{stroke-dasharray:14.95 14.95;}.cls-6{stroke-dasharray:15;}.cls-7{fill:#0e0e0e;}.cls-8,.cls-9{fill:#fff;}.cls-10{stroke-width:10px;}</style></defs><title>No credits</title><g id="No_Credits" data-name="No Credits"><path class="cls-1" d="M141.46,649.49H160.1A292.57,292.57,0,0,1,452.67,942.06v18.64a7.59,7.59,0,0,1-7.59,7.59H141.46a7.59,7.59,0,0,1-7.59-7.59V657.08a7.59,7.59,0,0,1,7.59-7.59Z"/><path class="cls-2" d="M337.3,416.41H766.11a30,30,0,0,1,30,30v341.1a23.35,23.35,0,0,1-23.35,23.35H755.48V506.57a27.23,27.23,0,0,0-27.24-27.23l-412.07.07V437.54A21.13,21.13,0,0,1,337.3,416.41Z"/><path class="cls-3" d="M755.48,826.33H806a19,19,0,0,0,19-19v-383a26,26,0,0,0-26-26H310a41,41,0,0,0-41,41h0a41,41,0,0,0,41,41H729.48a26,26,0,0,1,26,26v345a19,19,0,0,1-19,19H292.31A23.3,23.3,0,0,1,269,847V439.33"/><path class="cls-3" d="M825,563.4H929.37a16.77,16.77,0,0,1,16.77,16.77v71.9a16.77,16.77,0,0,1-16.77,16.77H825a0,0,0,0,1,0,0V563.4A0,0,0,0,1,825,563.4Z"/><circle class="cls-2" cx="911.57" cy="624.9" r="28.5"/><circle class="cls-3" cx="903.57" cy="615.9" r="28.5"/><line class="cls-3" x1="755.48" y1="600.9" x2="805.14" y2="600.9"/><line class="cls-3" x1="755.48" y1="687.9" x2="805.14" y2="687.9"/><line class="cls-3" x1="755.48" y1="774.89" x2="805.14" y2="774.89"/><path class="cls-4" d="M875.07,207.54q-3.54,1-7.16,2.23"/><path class="cls-5" d="M854.14,215.55c-52.28,25.49-107,91.68-85.65,152.68,13,28.1,51.61,14.56,66.12-25.84,20.29-56.14-22.48-85.11-79-29C725.8,344,691.52,393.93,657.22,449.26"/><path class="cls-4" d="M653.29,455.62l-3.92,6.4"/><path class="cls-6" d="M451.73,448.34q-31.21-105-135.56-132"/><path class="cls-6" d="M490.72,448.34q-22.5-87,21-132"/><ellipse class="cls-7" cx="281.12" cy="301.95" rx="10.69" ry="19.84" transform="translate(-111.3 429.27) rotate(-65.02)"/><circle class="cls-7" cx="258.49" cy="291.28" r="5.85" transform="translate(-114.7 402.59) rotate(-65.02)"/><path class="cls-8" d="M276.2,270.9h12.51a9.59,9.59,0,0,1,9.59,9.59v0a9.59,9.59,0,0,1-9.59,9.59H265.6a1.88,1.88,0,0,1-1.88-1.88v-4.81A12.48,12.48,0,0,1,276.2,270.9Z" transform="translate(650.06 134.09) rotate(113.41)"/><path class="cls-8" d="M290.17,286.18h8.07a6.19,6.19,0,0,1,6.19,6.19v0a6.19,6.19,0,0,1-6.19,6.19H283.33a1.22,1.22,0,0,1-1.22-1.22v-3.1a8.05,8.05,0,0,1,8.05-8.05Z" transform="translate(678.09 139.42) rotate(113.41)"/><path class="cls-8" d="M250.15,304.06h23.11a9.59,9.59,0,0,1,9.59,9.59v0a9.59,9.59,0,0,1-9.59,9.59H260.75a12.48,12.48,0,0,1-12.48-12.48v-4.81A1.88,1.88,0,0,1,250.15,304.06Z" transform="translate(-133.7 411.06) rotate(-63.46)"/><path class="cls-8" d="M272.6,309.21h14.91a6.19,6.19,0,0,1,6.19,6.19v0a6.19,6.19,0,0,1-6.19,6.19h-8.07a8.05,8.05,0,0,1-8.05-8.05v-3.1a1.22,1.22,0,0,1,1.22-1.22Z" transform="translate(-125.88 427.22) rotate(-63.46)"/><path class="cls-3" d="M255.52,286.24a10.56,10.56,0,0,1-2.67-4.87"/><path class="cls-3" d="M252.72,292.24q-2.1-.8-5.45,1.09"/><ellipse class="cls-7" cx="901.69" cy="169" rx="29.37" ry="15.82" transform="translate(367.74 914.99) rotate(-65.02)"/><circle class="cls-7" cx="917.47" cy="135.51" r="8.66" transform="translate(407.22 909.95) rotate(-65.02)"/><path class="cls-8" d="M926.32,154.64h18.51A14.19,14.19,0,0,1,959,168.83v0A14.19,14.19,0,0,1,944.84,183h-34.2a2.79,2.79,0,0,1-2.79-2.79v-7.12a18.47,18.47,0,0,1,18.47-18.47Z" transform="translate(1722.93 694.69) rotate(-156.59)"/><path class="cls-8" d="M911.28,177.83h11.94a9.16,9.16,0,0,1,9.16,9.16v0a9.16,9.16,0,0,1-9.16,9.16H901.16a1.8,1.8,0,0,1-1.8-1.8v-4.59a11.92,11.92,0,0,1,11.92-11.92Z" transform="translate(1682.03 722.52) rotate(-156.59)"/><path class="cls-8" d="M861.57,131.78h34.2A14.19,14.19,0,0,1,910,146v0a14.19,14.19,0,0,1-14.19,14.19H877.25a18.47,18.47,0,0,1-18.47-18.47v-7.12a2.79,2.79,0,0,1,2.79-2.79Z" transform="translate(158.44 -379.8) rotate(26.54)"/><path class="cls-8" d="M867.07,161.95h22.06a9.16,9.16,0,0,1,9.16,9.16v0a9.16,9.16,0,0,1-9.16,9.16H877.19a11.92,11.92,0,0,1-11.92-11.92v-4.59A1.8,1.8,0,0,1,867.07,161.95Z" transform="translate(169.39 -375.99) rotate(26.54)"/><path class="cls-3" d="M924.93,131.11a15.63,15.63,0,0,1,7.21-4"/><path class="cls-3" d="M916.06,127q1.19-3.1-1.61-8.07"/><circle class="cls-4" cx="444.04" cy="736.62" r="38.73"/><circle class="cls-7" cx="444.04" cy="736.62" r="29.16"/><circle class="cls-9" cx="460.58" cy="721.83" r="3.48"/><circle class="cls-9" cx="454.49" cy="731.4" r="1.74"/><circle class="cls-4" cx="595.49" cy="736.68" r="38.73"/><circle class="cls-7" cx="595.49" cy="736.68" r="29.16"/><circle class="cls-9" cx="612.03" cy="721.89" r="3.48"/><circle class="cls-9" cx="605.94" cy="731.46" r="1.74"/><path class="cls-10" d="M486.65,820.19c30.62-18,55.23-11.85,76.6,0"/><path class="cls-10" d="M472.81,652.36c-17.71,21.46-42.8,23.51-70.28,19.28"/><path class="cls-10" d="M561.82,652.4c17.69,21.47,42.78,23.55,70.26,19.34"/></g></svg>