<svg xmlns="http://www.w3.org/2000/svg" viewBox="0 0 1080 1080"><defs><style>.cls-1{fill:none;stroke:#0e0e0e;stroke-linecap:round;stroke-linejoin:round;stroke-width:3px;}.cls-2{fill:#ababab;}.cls-3{fill:#d3d3d3;}.cls-4,.cls-5,.cls-6,.cls-7{fill:#0e0e0e;}.cls-5{font-size:54.92px;letter-spacing:0.3em;}.cls-5,.cls-6,.cls-7{font-family:Nunito-Light, Nunito;}.cls-6{font-size:73.14px;letter-spacing:0.3em;}.cls-7{font-size:79px;letter-spacing:0.3em;}</style></defs><title>No Notif</title><g id="no_notification" data-name="no notification"><path class="cls-1" d="M823.7,629.49q32.5-1.76,65.29-3.89"/><path class="cls-2" d="M270.59,630.37c4.78-24.86,27.21-39.61,58.73-39.61q2,0,3.91.08l-4.75,42.79Z"/><path class="cls-1" d="M181,625.6q195,14.54,403.89,11.91"/><path class="cls-1" d="M827.45,706.11c20.81,0,41.37,0,61.53-.08"/><path class="cls-1" d="M181,736.4c48.46-27.68,212.36-31.75,397.41-31.5"/><path class="cls-1" d="M373,707.89q-52.26,23.63-67.6,47.25"/><path class="cls-1" d="M404.2,707.61c-34.27,12.86-60.64,30-65,59.5"/><path class="cls-2" d="M552.71,538.26a52.88,52.88,0,1,0-68.47-37.69C512.9,509.66,537.72,521,552.71,538.26Z"/><path class="cls-1" d="M328.48,634c4.09-92.6,44.24-155.44,147.4-135,78.83,18.43,109,63,109,138.86"/><path class="cls-1" d="M460.08,495.79a83.31,83.31,0,1,1,106.84,61.06"/><path class="cls-1" d="M215.23,628a93.27,93.27,0,0,1,124-63.36"/><path class="cls-3" d="M616,537.66c122.34-54.46,210.26-18.05,224.47,100.09,6,47.92,4.57,90.53,0,137-5.22,23.65-63.47,20.87-72.69,0-5.32-5.87-5.6-65,0-88.06.55-2.27-2.93-3.48-4.72-1.88-16.18,14.5-61.53,14.7-79.81-1.35a2.8,2.8,0,0,0-4.64,1.91c4.28,31.3,5,61.49-1.58,89.39-7.51,29.25-72,26.36-75.09,0-6.79-33,1.85-95.55,0-136.82C595.46,597.83,600.63,564.6,616,537.66Z"/><path class="cls-1" d="M599,537.66c122.34-54.46,210.26-18.05,224.47,100.09,6,47.92,4.57,90.53,0,137-5.22,23.65-63.47,20.87-72.69,0-5.32-5.87-5.6-65,0-88.06.55-2.27-2.93-3.48-4.72-1.88-16.18,14.5-61.53,14.7-79.81-1.35a2.8,2.8,0,0,0-4.64,1.91c4.28,31.3,5,61.49-1.58,89.39-7.51,29.25-72,26.36-75.09,0-10.39-36.45-7.86-101.57,0-136.82"/><path class="cls-1" d="M503.87,705.89c-6.14,21.19-6.57,50.55,0,65.17,7.81,25.26,68.49,24.57,80,0"/><path class="cls-1" d="M688.66,706.31c-6.14,22-5.4,46.33,0,67.49,6.06,20.31,53.06,14.48,60.64-1.47"/><path class="cls-1" d="M494.25,553.29q-5,21.07-29,20.93"/><path class="cls-1" d="M409.34,606.22q-8.55,19.89-32.23,15.56"/><path class="cls-4" d="M450.67,636.78l-14.55-21.13c-4.26-4.91-2.38-13.58,4.19-19.28h0c6.56-5.7,15.41-6.35,19.67-1.44l27.48,25.62c3.56,4.1-.6,11.07-5.89,16.58"/><line class="cls-1" x1="516.31" y1="631.74" x2="508.95" y2="637.06"/><line class="cls-1" x1="239.38" y1="657.85" x2="377.11" y2="657.85"/><line class="cls-1" x1="353.02" y1="671.04" x2="471.27" y2="671.04"/><line class="cls-1" x1="488.79" y1="657.85" x2="520.41" y2="657.85"/><text class="cls-5" transform="translate(664.27 447.64)">z</text><text class="cls-6" transform="translate(713.89 400.69)">z</text><text class="cls-7" transform="translate(767.92 342.83)">z</text><line class="cls-1" x1="680.77" y1="704.89" x2="747.94" y2="705.89"/></g></svg>