<svg xmlns="http://www.w3.org/2000/svg" viewBox="0 0 1080 1080"><defs><style>.cls-1{fill:#e5e5e5;}.cls-2{fill:#e2e2e2;}.cls-3,.cls-4,.cls-7{fill:none;stroke:#0e0e0e;stroke-linecap:round;stroke-linejoin:round;}.cls-3{stroke-width:3px;}.cls-4{stroke-width:9px;}.cls-5{fill:#0e0e0e;}.cls-6{fill:#fff;}.cls-7{stroke-width:10px;}.cls-8{font-size:92.48px;}.cls-10,.cls-11,.cls-8,.cls-9{fill:#727272;font-family:Nunito-Bold, Nunito;font-weight:700;}.cls-9{font-size:65.81px;}.cls-10{font-size:137.65px;}.cls-11{font-size:68.94px;}</style></defs><title>No Product</title><g id="No_Product" data-name="No Product"><path class="cls-1" d="M397.42,550.12l88.11-181.23a20.51,20.51,0,0,1,27.41-9.48l177.42,86.25a20.51,20.51,0,0,1,10.41,11.74l90.84,262.74a20.51,20.51,0,0,1-12.68,26.08L512.43,838.37a20.51,20.51,0,0,1-26.08-12.68l-89.86-259.9A20.51,20.51,0,0,1,397.42,550.12Z"/><circle class="cls-2" cx="255.92" cy="263.27" r="14.22"/><circle class="cls-2" cx="238.44" cy="321.9" r="17.49"/><circle class="cls-2" cx="297.01" cy="316.3" r="11.88"/><circle class="cls-2" cx="865.84" cy="816.79" r="14.22" transform="translate(-319.69 710.29) rotate(-38.2)"/><circle class="cls-2" cx="849.57" cy="881.87" r="11.88" transform="translate(-363.42 714.16) rotate(-38.2)"/><path class="cls-3" d="M363.31,510.86l88.11-181.23a20.51,20.51,0,0,1,27.41-9.48L656.25,406.4a20.51,20.51,0,0,1,10.41,11.74l90.84,262.74A20.51,20.51,0,0,1,744.83,707L478.32,799.11a20.51,20.51,0,0,1-26.08-12.68l-89.86-259.9A20.51,20.51,0,0,1,363.31,510.86Z"/><circle class="cls-3" cx="492.49" cy="408.62" r="28.5" transform="translate(-106.49 183.36) rotate(-19.07)"/><path class="cls-4" d="M495.14,409.9c-70-257.34-187-148.7-93.61-6.57"/><circle class="cls-3" cx="497.18" cy="658.29" r="38.73" transform="matrix(0.95, -0.33, 0.33, 0.95, -187.82, 198.61)"/><circle class="cls-5" cx="497.18" cy="658.29" r="29.16" transform="translate(-187.82 198.61) rotate(-19.07)"/><circle class="cls-6" cx="507.98" cy="638.9" r="3.48" transform="translate(-180.89 201.07) rotate(-19.07)"/><circle class="cls-6" cx="505.35" cy="649.94" r="1.74" transform="translate(-184.64 200.82) rotate(-19.07)"/><circle class="cls-3" cx="640.32" cy="608.8" r="38.73" transform="translate(-163.79 242.66) rotate(-19.07)"/><circle class="cls-5" cx="640.32" cy="608.8" r="29.16" transform="matrix(0.95, -0.33, 0.33, 0.95, -163.79, 242.66)"/><circle class="cls-6" cx="651.11" cy="589.41" r="3.48" transform="translate(-156.86 245.13) rotate(-19.07)"/><circle class="cls-6" cx="648.48" cy="600.45" r="1.74" transform="translate(-160.61 244.87) rotate(-19.07)"/><path class="cls-3" d="M564.8,723.33c23-27,48.31-29.27,72.39-25"/><path class="cls-7" d="M496.8,569.26c-9.71,26.07-32.75,36.22-60.1,41.21"/><path class="cls-7" d="M580.93,540.17c23.74,14.5,48.13,8.25,72.72-4.72"/><path class="cls-3" d="M637.36,685.65c-2.6,8.71.16,16.11,7.93,18.79"/><path class="cls-3" d="M556.65,713.55c7.42,5.24,9.82,12.76,5.37,19.68"/><text class="cls-8" transform="translate(834.44 227.46) rotate(45)">+</text><text class="cls-9" transform="translate(852.2 312.94) rotate(45)">+</text><text class="cls-10" transform="translate(733.3 306.14) rotate(45)">+</text><text class="cls-8" transform="translate(177.96 744.84) rotate(45)">+</text><text class="cls-9" transform="translate(173.85 860.32) rotate(45)">+</text><text class="cls-11" transform="translate(268.05 810.45) rotate(45)">+</text></g></svg>