<svg xmlns="http://www.w3.org/2000/svg" viewBox="0 0 1080 1080"><defs><style>.cls-1{fill:#e2e2e2;}.cls-2{fill:#fff;}.cls-10,.cls-3,.cls-6,.cls-9{fill:none;}.cls-10,.cls-3,.cls-9{stroke:#0e0e0e;}.cls-10,.cls-3,.cls-6{stroke-linecap:round;}.cls-10,.cls-3{stroke-linejoin:round;}.cls-3,.cls-9{stroke-width:3px;}.cls-4{fill:#8c8c8c;}.cls-5{fill:#d3d3d3;}.cls-6{stroke:#8c8c8c;stroke-width:9px;}.cls-6,.cls-9{stroke-miterlimit:10;}.cls-7{font-size:92.48px;}.cls-7,.cls-8{fill:#727272;font-family:Nunito-Bold, Nunito;font-weight:700;}.cls-8{font-size:137.65px;}.cls-10{stroke-width:8px;}</style></defs><title>Payment succsess</title><g id="Payment_Success" data-name="Payment Success"><circle class="cls-1" cx="384.76" cy="627.96" r="211"/><rect class="cls-2" x="362.61" y="380.61" width="448.11" height="289.72" rx="10.97" ry="10.97"/><path class="cls-3" d="M695.06,670.33H373.59a11,11,0,0,1-11-11V391.58a11,11,0,0,1,11-11H799.75a11,11,0,0,1,11,11V578.06"/><circle class="cls-4" cx="747.01" cy="444.03" r="32.91"/><circle class="cls-5" cx="708.29" cy="444.03" r="32.91" transform="translate(-106.53 630.89) rotate(-45)"/><rect class="cls-5" x="402.85" y="476.03" width="70.01" height="42.59" rx="5.9" ry="5.9"/><line class="cls-6" x1="402.85" y1="622.69" x2="467.82" y2="622.69"/><line class="cls-6" x1="503.34" y1="622.69" x2="568.3" y2="622.69"/><line class="cls-6" x1="602.74" y1="622.69" x2="667.71" y2="622.69"/><circle class="cls-1" cx="667.02" cy="831.27" r="14.22"/><circle class="cls-1" cx="649.53" cy="889.9" r="17.49"/><circle class="cls-1" cx="708.1" cy="884.3" r="11.88"/><circle class="cls-1" cx="872.69" cy="297.37" r="14.22" transform="translate(85.25 776.91) rotate(-50.16)"/><circle class="cls-1" cx="389.04" cy="270.57" r="17.49" transform="translate(-67.95 395.93) rotate(-50.16)"/><circle class="cls-1" cx="422.27" cy="222" r="11.88" transform="translate(-18.73 403.99) rotate(-50.16)"/><text class="cls-7" transform="translate(263.13 290.17)">+</text><text class="cls-8" transform="translate(384.76 365.71)">+</text><circle class="cls-4" cx="747.01" cy="444.03" r="32.91"/><circle class="cls-5" cx="708.29" cy="444.03" r="32.91" transform="translate(-106.53 630.89) rotate(-45)"/><rect class="cls-5" x="402.85" y="476.03" width="70.01" height="42.59" rx="5.9" ry="5.9"/><circle class="cls-1" cx="667.02" cy="831.27" r="14.22"/><circle class="cls-1" cx="649.53" cy="889.9" r="17.49"/><circle class="cls-1" cx="708.1" cy="884.3" r="11.88"/><circle class="cls-1" cx="872.69" cy="297.37" r="14.22" transform="translate(85.25 776.91) rotate(-50.16)"/><circle class="cls-1" cx="389.04" cy="270.57" r="17.49" transform="translate(-67.95 395.93) rotate(-50.16)"/><circle class="cls-1" cx="422.27" cy="222" r="11.88" transform="translate(-18.73 403.99) rotate(-50.16)"/><text class="cls-7" transform="translate(263.13 290.17)">+</text><text class="cls-8" transform="translate(384.76 365.71)">+</text><circle class="cls-1" cx="804.85" cy="670.33" r="84.84" transform="translate(-77.04 1235.49) rotate(-72.44)"/><circle class="cls-9" cx="779.92" cy="659.75" r="84.84" transform="translate(-84.36 1204.34) rotate(-72.44)"/><polyline class="cls-10" points="746.13 656.98 774 683.38 818.21 638.12"/></g></svg>