<svg xmlns="http://www.w3.org/2000/svg" viewBox="0 0 1080 1080"><defs><style>.cls-1{fill:#bcbcbc;}.cls-2{fill:none;stroke:#0e0e0e;stroke-linecap:round;stroke-linejoin:round;stroke-width:3px;}.cls-3{fill:#eaeaea;}</style></defs><title>Search</title><g id="Search"><path class="cls-1" d="M318,772.27H629a0,0,0,0,1,0,0V849.5a13.41,13.41,0,0,1-13.41,13.41H318a0,0,0,0,1,0,0V772.27A0,0,0,0,1,318,772.27Z"/><path class="cls-1" d="M282.77,367.22h35.1a7.25,7.25,0,0,1,7.25,7.25V855.65a7.25,7.25,0,0,1-7.25,7.25h-28a14.34,14.34,0,0,1-14.34-14.34V374.47A7.25,7.25,0,0,1,282.77,367.22Z"/><path class="cls-2" d="M610.26,772.28V827a9.76,9.76,0,0,1-9.74,9.74H259.42a9.76,9.76,0,0,1-9.74-9.74V350.65a9.76,9.76,0,0,1,9.74-9.74h65.71"/><polygon class="cls-1" points="612.58 281.9 704.26 373.57 612.58 373.57 612.58 281.9"/><polyline class="cls-2" points="685.71 689.89 685.71 651.91 685.71 423.91 685.71 368.15"/><path class="cls-2" d="M594,276.47H327.52a2.4,2.4,0,0,0-2.39,2.39v491a2.4,2.4,0,0,0,2.39,2.39H620.83"/><polygon class="cls-2" points="594.03 276.47 685.71 368.15 594.03 368.15 594.03 276.47"/><line class="cls-2" x1="350.6" y1="313.91" x2="518.6" y2="313.91"/><line class="cls-2" x1="350.6" y1="346.43" x2="443.6" y2="346.43"/><line class="cls-2" x1="350.6" y1="378.95" x2="475.6" y2="378.95"/><line class="cls-2" x1="350.6" y1="740.91" x2="473.52" y2="740.91"/><line class="cls-2" x1="350.6" y1="706.91" x2="412.06" y2="706.91"/><line class="cls-2" x1="350.6" y1="459.53" x2="629.02" y2="459.53"/><line class="cls-2" x1="350.6" y1="488.03" x2="536.91" y2="488.03"/><line class="cls-2" x1="350.6" y1="524.37" x2="646.41" y2="524.37"/><line class="cls-2" x1="350.6" y1="615.06" x2="658.42" y2="615.06"/><line class="cls-2" x1="350.6" y1="588.82" x2="594.03" y2="588.82"/><circle class="cls-1" cx="627.17" cy="711.01" r="62.23" transform="translate(-317.58 790.52) rotate(-53.4)"/><circle class="cls-2" cx="627.17" cy="711.01" r="62.23" transform="translate(-317.58 790.52) rotate(-53.4)"/><circle class="cls-3" cx="627.17" cy="711.01" r="48.68" transform="translate(-317.58 790.52) rotate(-53.4)"/><circle class="cls-2" cx="627.17" cy="711.01" r="48.68" transform="translate(-317.58 790.52) rotate(-53.4)"/><path class="cls-2" d="M802.1,831l-9.52,12.81c-2.71,3.65-7.63,4.63-10.92,2.19L666.34,760.34a71.72,71.72,0,0,0,19.37-26.08L801,819.91C804.33,822.36,804.81,827.35,802.1,831Z"/></g></svg>