<svg xmlns="http://www.w3.org/2000/svg" viewBox="0 0 1080 1080"><defs><style>.cls-1,.cls-12,.cls-13,.cls-3,.cls-9{fill:none;}.cls-1,.cls-12,.cls-3,.cls-4,.cls-7,.cls-9{stroke:#0e0e0e;}.cls-1,.cls-13,.cls-4,.cls-6,.cls-7,.cls-9{stroke-miterlimit:10;}.cls-1,.cls-13,.cls-3,.cls-4,.cls-6,.cls-7,.cls-9{stroke-width:3px;}.cls-2,.cls-4,.cls-6{fill:#d3d3d3;}.cls-12,.cls-3,.cls-9{stroke-linecap:round;}.cls-12,.cls-3{stroke-linejoin:round;}.cls-5{fill:#ddd;}.cls-13,.cls-6{stroke:#000;}.cls-7{fill:#fff;}.cls-8{fill:#bcbcbc;}.cls-10{fill:#0e0e0e;}.cls-11{fill:#dbdbdb;}.cls-12{stroke-width:6px;}</style></defs><title>Under maintenance</title><g id="Under_Maintenance" data-name="Under Maintenance"><line class="cls-1" x1="524.01" y1="410.31" x2="995.89" y2="410.31"/><rect class="cls-2" x="524.01" y="381.06" width="471.88" height="24.46" rx="4.84" ry="4.84"/><rect class="cls-1" x="524.01" y="373.62" width="471.88" height="24.46" rx="4.84" ry="4.84"/><line class="cls-3" x1="941.12" y1="397.01" x2="941.12" y2="819.65"/><line class="cls-3" x1="927.88" y1="229.47" x2="927.88" y2="819.65"/><line class="cls-3" x1="883.36" y1="277" x2="883.36" y2="819.65"/><line class="cls-3" x1="870.12" y1="397.01" x2="870.12" y2="819.65"/><line class="cls-3" x1="928.27" y1="403.44" x2="882.97" y2="448.74"/><line class="cls-3" x1="882.97" y1="403.44" x2="928.27" y2="448.74"/><path class="cls-4" d="M892.64,323.47h61a6.38,6.38,0,0,1,6.38,6.38v98a6.38,6.38,0,0,1-6.38,6.38h-98a6.38,6.38,0,0,1-6.38-6.38v-61A43.44,43.44,0,0,1,892.64,323.47Z" transform="translate(1283.46 -525.73) rotate(90)"/><rect class="cls-4" x="849.2" y="495.37" width="110.79" height="18.25" rx="2.84" ry="2.84"/><line class="cls-1" x1="105.88" y1="701.17" x2="105.88" y2="867.14"/><line class="cls-1" x1="115.84" y1="701.17" x2="115.84" y2="867.14"/><line class="cls-1" x1="281.14" y1="701.17" x2="281.14" y2="867.14"/><line class="cls-1" x1="271.18" y1="701.17" x2="271.18" y2="867.14"/><rect class="cls-5" x="92.82" y="768.27" width="201.27" height="13.28" rx="3.32" ry="3.32"/><rect class="cls-5" x="92.82" y="692.74" width="201.27" height="13.28" rx="3.32" ry="3.32"/><rect class="cls-1" x="92.82" y="687.89" width="201.27" height="13.28" rx="3.32" ry="3.32"/><rect class="cls-1" x="92.82" y="764.41" width="201.27" height="13.28" rx="3.32" ry="3.32"/><rect class="cls-4" x="849.2" y="650.96" width="110.79" height="18.25" rx="2.84" ry="2.84"/><line class="cls-3" x1="928.27" y1="514.28" x2="882.97" y2="559.58"/><line class="cls-3" x1="882.97" y1="514.28" x2="928.27" y2="559.58"/><line class="cls-3" x1="928.27" y1="449.4" x2="882.97" y2="494.7"/><line class="cls-3" x1="882.97" y1="449.4" x2="928.27" y2="494.7"/><line class="cls-1" x1="928.27" y1="277" x2="882.97" y2="322.3"/><line class="cls-1" x1="882.97" y1="277" x2="928.27" y2="322.3"/><line class="cls-3" x1="928.27" y1="559.84" x2="882.97" y2="605.14"/><line class="cls-3" x1="882.97" y1="559.84" x2="928.27" y2="605.14"/><line class="cls-3" x1="928.27" y1="605.4" x2="882.97" y2="650.7"/><line class="cls-3" x1="882.97" y1="605.4" x2="928.27" y2="650.7"/><line class="cls-3" x1="928.27" y1="669.48" x2="882.97" y2="714.78"/><line class="cls-3" x1="882.97" y1="669.48" x2="928.27" y2="714.78"/><line class="cls-3" x1="928.27" y1="715.04" x2="882.97" y2="760.34"/><line class="cls-3" x1="882.97" y1="715.04" x2="928.27" y2="760.34"/><line class="cls-3" x1="928.27" y1="760.6" x2="882.97" y2="805.9"/><line class="cls-3" x1="882.97" y1="760.6" x2="928.27" y2="805.9"/><path class="cls-6" d="M844,819.65H954.7a5.29,5.29,0,0,1,5.29,5.29v37.55a5.29,5.29,0,0,1-5.29,5.29H810.54a5.29,5.29,0,0,1-5.29-5.29v-4.05A38.79,38.79,0,0,1,844,819.65Z"/><polygon class="cls-3" points="927.88 277 883.36 277 905.13 253.65 927.88 277"/><circle class="cls-3" cx="927.88" cy="224.13" r="5.34"/><line class="cls-3" x1="922.54" y1="224.13" x2="905.13" y2="253.65"/><line class="cls-3" x1="922.54" y1="224.13" x2="528.42" y2="373.62"/><rect class="cls-4" x="630.7" y="398.08" width="60.84" height="22.16" rx="3.31" ry="3.31"/><circle class="cls-7" cx="650.42" cy="409.16" r="5.75"/><circle class="cls-7" cx="672.27" cy="409.16" r="5.75"/><path class="cls-8" d="M205.39,658.66l48.1-92.17a7.22,7.22,0,0,1,12.76-.08l49.55,92.17a7.22,7.22,0,0,1-6.36,10.64H211.79A7.22,7.22,0,0,1,205.39,658.66Z"/><path class="cls-1" d="M194.29,651.13,242.39,559a7.22,7.22,0,0,1,12.76-.08L304.69,651a7.22,7.22,0,0,1-6.36,10.64H200.69A7.22,7.22,0,0,1,194.29,651.13Z"/><path class="cls-7" d="M249.94,632.46h-1.15c-2.85,0-7.76-2.33-7.76-5.17L243.62,587a5.19,5.19,0,0,1,5.17-5.17h1.15a5.19,5.19,0,0,1,5.17,5.17L258,627.29C258,630.14,252.79,632.46,249.94,632.46Z"/><circle class="cls-7" cx="249.51" cy="645.46" r="7.84"/><line class="cls-3" x1="661.12" y1="464.55" x2="661.12" y2="420.24"/><polyline class="cls-3" points="629.25 530.48 661.05 498.86 690.66 530.58"/><path class="cls-9" d="M625.4,271.59A22.21,22.21,0,1,1,646,257.7"/><path class="cls-9" d="M632.52,228.1a30.81,30.81,0,1,1,60.7,10.45"/><path class="cls-9" d="M682.75,241.63a16.48,16.48,0,1,1,9.62,29.86"/><line class="cls-1" x1="625.4" y1="271.59" x2="692.38" y2="271.59"/><path class="cls-9" d="M132.25,445.45A35.33,35.33,0,1,1,165,423.37"/><path class="cls-9" d="M143.57,376.27a49,49,0,1,1,96.55,16.62"/><path class="cls-9" d="M223.48,397.79a26.22,26.22,0,1,1,15.31,47.5"/><line class="cls-1" x1="132.25" y1="445.45" x2="238.79" y2="445.45"/><path class="cls-9" d="M309.3,393.85a21.44,21.44,0,1,1,19.89-13.4"/><path class="cls-9" d="M316.17,351.88A29.74,29.74,0,1,1,374.76,362"/><path class="cls-9" d="M364.66,364.94a15.91,15.91,0,1,1,9.29,28.82"/><line class="cls-1" x1="309.3" y1="393.85" x2="373.95" y2="393.85"/><rect class="cls-7" x="230.99" y="754.53" width="126.2" height="29.52" rx="5.82" ry="5.82"/><polygon class="cls-10" points="303.31 754.53 317.88 754.53 288.37 784.04 274.21 784.08 303.31 754.53"/><polygon class="cls-10" points="267.88 754.53 282.44 754.53 252.94 784.04 238.78 784.08 267.88 754.53"/><polygon class="cls-10" points="335.25 754.53 349.81 754.53 320.3 784.04 306.14 784.08 335.25 754.53"/><path class="cls-7" d="M249.92,784.78v79.07a3.28,3.28,0,0,1-3.28,3.28h-6.55a3.28,3.28,0,0,1-3.28-3.28V784.05"/><path class="cls-7" d="M236.82,754.53V741.06a3.28,3.28,0,0,1,3.28-3.28h6.55a3.28,3.28,0,0,1,3.28,3.28v13.47"/><path class="cls-7" d="M350.38,784.08v79.78a3.28,3.28,0,0,1-3.28,3.28h-6.55a3.28,3.28,0,0,1-3.28-3.28V784.08"/><path class="cls-7" d="M337.28,754.53V741.06a3.28,3.28,0,0,1,3.28-3.28h6.55a3.28,3.28,0,0,1,3.28,3.28v13.47"/><circle class="cls-7" cx="243.37" cy="746.76" r="3.64"/><circle class="cls-1" cx="343.83" cy="746.76" r="3.64"/><circle class="cls-1" cx="243.37" cy="794.87" r="3.64"/><circle class="cls-1" cx="343.83" cy="794.87" r="3.64"/><rect class="cls-1" x="367.31" y="530.61" width="393.61" height="246.9" rx="16.2" ry="16.2"/><rect class="cls-11" x="383.36" y="546.25" width="361.51" height="200.28" rx="13.99" ry="13.99"/><rect class="cls-1" x="383.36" y="546.25" width="361.51" height="200.28" rx="13.99" ry="13.99"/><rect class="cls-1" x="531.63" y="777.51" width="64.97" height="63.68"/><rect class="cls-11" x="438.51" y="848.14" width="252.81" height="27.34" rx="6.54" ry="6.54"/><rect class="cls-1" x="437.71" y="840.87" width="252.81" height="27.34" rx="6.54" ry="6.54"/><circle class="cls-1" cx="563.64" cy="761.58" r="9.18"/><line class="cls-12" x1="506.49" y1="605.77" x2="466.75" y2="645.51"/><line class="cls-12" x1="466.75" y1="605.76" x2="506.49" y2="645.51"/><line class="cls-12" x1="658.95" y1="605.77" x2="619.2" y2="645.51"/><line class="cls-12" x1="619.2" y1="605.77" x2="658.95" y2="645.51"/><line class="cls-12" x1="523.86" y1="688.51" x2="602" y2="688.51"/><path class="cls-12" d="M572.09,689.32H597.3a0,0,0,0,1,0,0v32.57a2.43,2.43,0,0,1-2.43,2.43H574.52a2.43,2.43,0,0,1-2.43-2.43V689.32a0,0,0,0,1,0,0Z"/><line class="cls-12" x1="584.69" y1="706.82" x2="584.69" y2="688.51"/><circle class="cls-3" cx="661.12" cy="468.6" r="4.06"/><path class="cls-3" d="M661.12,473.71v13.52c10.81,0,10.81,14.72,0,14.72-2.3,0-4-1.34-5.54-3.09"/><line class="cls-13" x1="975.89" y1="868.2" x2="85.49" y2="868.2"/><path class="cls-3" d="M737.58,868.34H797l-27-84a2.83,2.83,0,0,0-5.39,0Z"/><polygon class="cls-10" points="773.76 796.18 755.22 813.48 751.75 824.27 776.04 803.25 773.76 796.18"/><polygon class="cls-10" points="780.02 815.65 745.64 843.27 741.98 854.67 782.42 823.11 780.02 815.65"/><polygon class="cls-10" points="786.88 836.98 744.61 868.34 756.62 868.34 789.34 845.24 786.88 836.98"/></g></svg>