<svg xmlns="http://www.w3.org/2000/svg" viewBox="0 0 1080 1080"><defs><style>.cls-1{fill:#ddd;}.cls-2,.cls-6,.cls-7{fill:none;stroke-linecap:round;stroke-linejoin:round;}.cls-2,.cls-6{stroke:#0e0e0e;}.cls-2,.cls-7{stroke-width:3px;}.cls-3{fill:#0e0e0e;}.cls-4{fill:#fff;}.cls-5{fill:#bcbcbc;}.cls-6{stroke-width:6px;}.cls-7{stroke:#231f20;}</style></defs><title>Upload gagal</title><g id="Upload_gagal" data-name="Upload gagal"><path class="cls-1" d="M378,809c-223.5-26.5-145.5-314.5,43.5-262.5,25-271,399-236,384,30,149-38,224,187,45.5,230.5Z"/><path class="cls-2" d="M316.5,784A135.5,135.5,0,1,1,417,557.57"/><path class="cls-2" d="M360.5,520.5c0-106.59,86.41-188,193-188s193,86.41,193,193a192.88,192.88,0,0,1-9.18,59"/><path class="cls-2" d="M744.87,550.63A118.51,118.51,0,1,1,776,783.5"/><line class="cls-2" x1="316.5" y1="783.5" x2="776.5" y2="783.5"/><circle class="cls-2" cx="458" cy="612" r="44.5"/><circle class="cls-3" cx="458" cy="612" r="33.5"/><circle class="cls-4" cx="477" cy="595" r="4"/><circle class="cls-4" cx="470" cy="606" r="2"/><circle class="cls-2" cx="632" cy="612" r="44.5"/><circle class="cls-3" cx="632" cy="612" r="33.5"/><circle class="cls-4" cx="651" cy="595" r="4"/><circle class="cls-4" cx="644" cy="606" r="2"/><path class="cls-2" d="M507,708c35.17-20.68,63.45-13.64,88,0"/><circle class="cls-5" cx="553.01" cy="814.95" r="79.01"/><circle class="cls-6" cx="554.72" cy="814.68" r="79.01"/><line class="cls-6" x1="554.74" y1="854.17" x2="554.74" y2="793.7"/><polyline class="cls-6" points="535.59 812.09 554.24 786.27 573.6 812.09"/><circle class="cls-2" cx="260.46" cy="399.5" r="80"/><circle class="cls-5" cx="798" cy="192" r="21.5"/><circle class="cls-5" cx="806" cy="257" r="8"/><circle class="cls-5" cx="734.5" cy="222.5" r="19.5"/><circle class="cls-5" cx="146" cy="864" r="9"/><circle class="cls-5" cx="216.5" cy="881.5" r="17.5"/><circle class="cls-5" cx="174" cy="927" r="28"/><line class="cls-2" x1="776" y1="145" x2="754" y2="123"/><line class="cls-2" x1="806" y1="143" x2="814" y2="113"/><line class="cls-2" x1="831.5" y1="153.5" x2="844.5" y2="148.5"/><line class="cls-7" x1="202.5" y1="859.5" x2="192.5" y2="842.5"/><line class="cls-7" x1="222.5" y1="854.5" x2="233.5" y2="837.5"/><line class="cls-2" x1="165.5" y1="340.5" x2="106.5" y2="319.5"/><line class="cls-2" x1="223.5" y1="301.5" x2="194.85" y2="212.37"/><line class="cls-2" x1="307.5" y1="307.5" x2="331.5" y2="254.5"/><line class="cls-6" x1="293" y1="369" x2="227" y2="435"/><line class="cls-6" x1="227" y1="369" x2="293" y2="435"/></g></svg>