<svg xmlns="http://www.w3.org/2000/svg" viewBox="0 0 1080 1080"><defs><style>.cls-1{fill:#bcbcbc;}.cls-2,.cls-3{fill:none;stroke:#0e0e0e;stroke-linecap:round;stroke-linejoin:round;}.cls-2{stroke-width:3px;}.cls-3{stroke-width:6px;}</style></defs><title>Upload file</title><g id="Upload_file" data-name="Upload file"><path class="cls-1" d="M971.21,616h0A10.79,10.79,0,0,1,982,626.79V978.21A10.79,10.79,0,0,1,971.21,989H619.79A10.79,10.79,0,0,1,609,978.21v0A362.21,362.21,0,0,1,971.21,616Z"/><path class="cls-2" d="M351.59,731.73V505.08a7.08,7.08,0,0,1,7.06-7.06h47.62"/><path class="cls-2" d="M612.89,810.62v39.65a7.08,7.08,0,0,1-7.06,7.06H513.57"/><polygon class="cls-1" points="614.57 455.26 681.01 521.69 614.57 521.69 614.57 455.26"/><path class="cls-2" d="M406.26,766V453.06a1.74,1.74,0,0,1,1.73-1.73H601.13"/><path class="cls-2" d="M667.57,517.76V808.45a2.17,2.17,0,0,1-2.17,2.17h-180"/><polygon class="cls-2" points="601.13 451.33 667.57 517.76 601.13 517.76 601.13 451.33"/><circle class="cls-1" cx="544.43" cy="654.88" r="55.07"/><circle class="cls-3" cx="537.34" cy="641.57" r="55.07"/><line class="cls-3" x1="537.35" y1="669.1" x2="537.35" y2="626.95"/><line class="cls-2" x1="430.09" y1="474.17" x2="479.72" y2="474.17"/><line class="cls-2" x1="430.45" y1="493.38" x2="534.8" y2="493.38"/><line class="cls-2" x1="430.45" y1="513.67" x2="518.13" y2="513.67"/><line class="cls-2" x1="430.45" y1="537.58" x2="578.28" y2="537.58"/><line class="cls-2" x1="647.85" y1="789.77" x2="556.54" y2="789.77"/><line class="cls-2" x1="647.85" y1="768.75" x2="530.45" y2="768.75"/><line class="cls-2" x1="647.85" y1="747.74" x2="589.15" y2="747.74"/><path class="cls-2" d="M221.19,833.41a104.84,104.84,0,0,1,197-50"/><path class="cls-2" d="M216.24,989.4a87.49,87.49,0,1,1,0-175q3.34,0,6.62.25"/><path class="cls-2" d="M513.57,857.32A102.91,102.91,0,0,0,312,886.51"/><path class="cls-2" d="M414.88,989.4a103,103,0,0,0,98.7-132.08"/><line class="cls-2" x1="419.83" y1="989.4" x2="216.24" y2="989.4"/><path class="cls-2" d="M272.72,484.89a82.75,82.75,0,1,1,82.75-82.75"/><path class="cls-2" d="M545.36,309.89a124.61,124.61,0,0,0-243,15"/><path class="cls-2" d="M511,340.85A92.76,92.76,0,0,1,681,392.13c0,38.1-21.82,69.68-54.67,84"/><line class="cls-2" x1="272.72" y1="484.89" x2="406.26" y2="484.89"/><path class="cls-2" d="M754.35,750.91A53.38,53.38,0,1,1,795.06,663"/><path class="cls-2" d="M893.14,665.5a65.56,65.56,0,0,0-127.91-20.24"/><path class="cls-2" d="M871.16,680.39a42.7,42.7,0,1,1,32.4,70.52"/><line class="cls-2" x1="754.1" y1="750.91" x2="909.03" y2="750.91"/><circle class="cls-1" cx="683.5" cy="229.5" r="35.5"/><circle class="cls-1" cx="766" cy="268" r="15"/><circle class="cls-1" cx="711" cy="307" r="8"/><circle class="cls-1" cx="129.5" cy="615.5" r="29.5"/><circle class="cls-1" cx="199.5" cy="651.5" r="9.5"/><circle class="cls-1" cx="158" cy="681" r="11"/><line class="cls-2" x1="668" y1="155" x2="668" y2="122"/><line class="cls-2" x1="653.5" y1="158.5" x2="635.5" y2="142.5"/><line class="cls-2" x1="683.5" y1="159.5" x2="697.5" y2="145.5"/><line class="cls-2" x1="146.5" y1="709.5" x2="137.5" y2="728.5"/><line class="cls-2" x1="169.5" y1="709.5" x2="175.5" y2="728.5"/><line class="cls-2" x1="136.5" y1="696.5" x2="117.5" y2="696.5"/><polyline class="cls-3" points="524 637 537 619 550.5 637"/></g></svg>