<svg xmlns="http://www.w3.org/2000/svg" viewBox="0 0 1080 1080"><defs><style>.cls-1{fill:#ddd;}.cls-2,.cls-4,.cls-7{fill:none;stroke-linecap:round;stroke-linejoin:round;}.cls-2,.cls-4{stroke:#0e0e0e;}.cls-2,.cls-7{stroke-width:3px;}.cls-3{fill:#bcbcbc;}.cls-4{stroke-width:6px;}.cls-5{fill:#0e0e0e;}.cls-6{fill:#fff;}.cls-7{stroke:#231f20;}</style></defs><title>Upload success</title><g id="Upload_success" data-name="Upload success"><path class="cls-1" d="M390,805c-223.5-26.5-145.5-314.5,43.5-262.5,25-271,399-236,384,30,149-38,224,187,45.5,230.5Z"/><path class="cls-2" d="M328.5,780A135.5,135.5,0,1,1,429,553.57"/><path class="cls-2" d="M372.5,516.5c0-106.59,86.41-188,193-188s193,86.41,193,193a192.88,192.88,0,0,1-9.18,59"/><path class="cls-2" d="M756.87,546.63A118.51,118.51,0,1,1,788,779.5"/><line class="cls-2" x1="328.5" y1="779.5" x2="788.5" y2="779.5"/><circle class="cls-3" cx="565.01" cy="810.95" r="79.01"/><circle class="cls-4" cx="566.72" cy="810.68" r="79.01"/><line class="cls-4" x1="566.74" y1="850.17" x2="566.74" y2="789.7"/><polyline class="cls-4" points="547.59 808.09 566.24 782.27 585.6 808.09"/><circle class="cls-2" cx="470" cy="607" r="44.5"/><circle class="cls-5" cx="470" cy="607" r="33.5"/><circle class="cls-6" cx="489" cy="590" r="4"/><circle class="cls-6" cx="482" cy="601" r="2"/><circle class="cls-2" cx="644" cy="607" r="44.5"/><circle class="cls-5" cx="644" cy="607" r="33.5"/><circle class="cls-6" cx="663" cy="590" r="4"/><circle class="cls-6" cx="656" cy="601" r="2"/><path class="cls-2" d="M519,690c28.64,18,58,18.6,88,0"/><circle class="cls-2" cx="272.46" cy="395.5" r="80"/><polyline class="cls-4" points="235.62 395.57 265.84 424 309.29 367.5"/><circle class="cls-3" cx="810" cy="188" r="21.5"/><circle class="cls-3" cx="818" cy="253" r="8"/><circle class="cls-3" cx="746.5" cy="218.5" r="19.5"/><circle class="cls-3" cx="158" cy="860" r="9"/><circle class="cls-3" cx="228.5" cy="877.5" r="17.5"/><circle class="cls-3" cx="186" cy="923" r="28"/><line class="cls-2" x1="788" y1="141" x2="766" y2="119"/><line class="cls-2" x1="818" y1="139" x2="826" y2="109"/><line class="cls-2" x1="843.5" y1="149.5" x2="856.5" y2="144.5"/><line class="cls-7" x1="214.5" y1="855.5" x2="204.5" y2="838.5"/><line class="cls-7" x1="234.5" y1="850.5" x2="245.5" y2="833.5"/><line class="cls-2" x1="177.5" y1="336.5" x2="118.5" y2="315.5"/><line class="cls-2" x1="235.5" y1="297.5" x2="206.85" y2="208.37"/><line class="cls-2" x1="319.5" y1="303.5" x2="343.5" y2="250.5"/></g></svg>