<svg xmlns="http://www.w3.org/2000/svg" viewBox="0 0 1080 1080"><defs><style>.cls-1{fill:#e2e2e2;}.cls-2{fill:#fff;}.cls-12,.cls-3,.cls-6{fill:none;}.cls-10,.cls-12,.cls-3{stroke:#0e0e0e;stroke-width:3px;}.cls-10,.cls-3,.cls-6{stroke-linecap:round;}.cls-10,.cls-3{stroke-linejoin:round;}.cls-4{fill:#8c8c8c;}.cls-5{fill:#d3d3d3;}.cls-6{stroke:#8c8c8c;stroke-width:9px;}.cls-12,.cls-6{stroke-miterlimit:10;}.cls-7{font-size:92.48px;}.cls-7,.cls-8{fill:#727272;font-family:Nunito-Bold, Nunito;font-weight:700;}.cls-8{font-size:137.65px;}.cls-9{fill:#c1c1c1;}.cls-10{fill:#f1f2f2;}.cls-11{fill:#7c7c7c;}</style></defs><title>Waiting Payment</title><g id="Waiting_Payment" data-name="Waiting Payment"><circle class="cls-1" cx="356.5" cy="642.96" r="211"/><rect class="cls-2" x="334.36" y="395.61" width="448.11" height="289.72" rx="10.97" ry="10.97"/><path class="cls-3" d="M674.71,685.33H345.33a11,11,0,0,1-11-11V406.58a11,11,0,0,1,11-11H771.5a11,11,0,0,1,11,11V593.06"/><circle class="cls-4" cx="718.76" cy="459.03" r="32.91"/><circle class="cls-5" cx="680.04" cy="459.03" r="32.91" transform="translate(-125.41 615.31) rotate(-45)"/><rect class="cls-5" x="374.6" y="491.03" width="70.01" height="42.59" rx="5.9" ry="5.9"/><line class="cls-6" x1="374.6" y1="637.69" x2="439.56" y2="637.69"/><line class="cls-6" x1="475.08" y1="637.69" x2="540.05" y2="637.69"/><line class="cls-6" x1="574.48" y1="637.69" x2="639.45" y2="637.69"/><line class="cls-6" x1="677.27" y1="637.69" x2="680" y2="637.69"/><circle class="cls-1" cx="876.79" cy="712.1" r="14.22"/><circle class="cls-1" cx="859.3" cy="770.73" r="17.49"/><circle class="cls-1" cx="917.87" cy="765.13" r="11.88"/><circle class="cls-1" cx="844.43" cy="312.37" r="14.22" transform="translate(63.58 760.6) rotate(-50.16)"/><circle class="cls-1" cx="360.79" cy="285.57" r="17.49" transform="translate(-89.62 379.63) rotate(-50.16)"/><circle class="cls-1" cx="394.01" cy="237" r="11.88" transform="translate(-40.4 387.69) rotate(-50.16)"/><text class="cls-7" transform="translate(234.88 305.17)">+</text><text class="cls-8" transform="translate(356.5 380.71)">+</text><circle class="cls-4" cx="718.76" cy="459.03" r="32.91"/><circle class="cls-5" cx="680.04" cy="459.03" r="32.91" transform="translate(-125.41 615.31) rotate(-45)"/><rect class="cls-5" x="374.6" y="491.03" width="70.01" height="42.59" rx="5.9" ry="5.9"/><circle class="cls-1" cx="876.79" cy="712.1" r="14.22"/><circle class="cls-1" cx="859.3" cy="770.73" r="17.49"/><circle class="cls-1" cx="917.87" cy="765.13" r="11.88"/><circle class="cls-1" cx="844.43" cy="312.37" r="14.22" transform="translate(63.58 760.6) rotate(-50.16)"/><circle class="cls-1" cx="360.79" cy="285.57" r="17.49" transform="translate(-89.62 379.63) rotate(-50.16)"/><circle class="cls-1" cx="394.01" cy="237" r="11.88" transform="translate(-40.4 387.69) rotate(-50.16)"/><text class="cls-7" transform="translate(234.88 305.17)">+</text><text class="cls-8" transform="translate(356.5 380.71)">+</text><rect class="cls-9" x="740.86" y="624.11" width="72.95" height="9.61" rx="4.52" ry="4.52" transform="translate(225.91 -205.18) rotate(17.56)"/><rect class="cls-9" x="703.43" y="721.8" width="72.95" height="9.61" rx="4.52" ry="4.52" transform="translate(253.64 -189.34) rotate(17.56)"/><rect class="cls-3" x="734.9" y="624.2" width="72.95" height="9.61" rx="4.52" ry="4.52" transform="translate(225.66 -203.38) rotate(17.56)"/><rect class="cls-3" x="704.88" y="719.09" width="72.95" height="9.61" rx="4.52" ry="4.52" transform="translate(252.89 -189.9) rotate(17.56)"/><path class="cls-10" d="M746.89,626.31l46.05,14.56c6.52,2.06,9.12,8.49,4.79,11.84l-31.91,24.73a5.24,5.24,0,0,0-1.81,6l12.12,35.91c1.79,5.29-4.07,9.19-10.67,7.1l-45.12-14.26c-6.7-2.12-9.2-8.81-4.5-12.05l31.09-21.44a5.27,5.27,0,0,0,2.11-6.2L736.2,633.35C734.47,628.08,740.32,624.23,746.89,626.31Z"/><path class="cls-11" d="M759.17,686.68l3.44,26.65a5.87,5.87,0,0,1-7.59,6.35l-11.35-3.59-11.06-3.5a5.87,5.87,0,0,1-2.45-9.69l19-19.57a5.87,5.87,0,0,1,6-1.51h0A5.87,5.87,0,0,1,759.17,686.68Z"/><path class="cls-11" d="M767.33,668.46l-3.68,4a5.87,5.87,0,0,1-6.09,1.64h0a5.87,5.87,0,0,1-4-4.69l-.89-5.59A2.6,2.6,0,0,1,756,661l10.2,3.26A2.6,2.6,0,0,1,767.33,668.46Z"/><path class="cls-11" d="M756.73,674.88l-1.47,1.87a1.38,1.38,0,0,0,.67,2.16h0a1.38,1.38,0,0,0,1.78-1.45l-.23-2.37A.42.42,0,0,0,756.73,674.88Z"/><circle class="cls-12" cx="759.57" cy="674.75" r="84.84" transform="translate(-112.87 1195.41) rotate(-72.44)"/></g></svg>