<svg xmlns="http://www.w3.org/2000/svg" viewBox="0 0 1080 1080"><defs><style>.cls-1{fill:#e5e5e5;}.cls-2{fill:#e2e2e2;}.cls-3{fill:none;stroke:#0e0e0e;stroke-linecap:round;stroke-linejoin:round;stroke-width:3px;}</style></defs><title>Welcome</title><g id="Welcome"><path class="cls-1" d="M590.84,242.27H877.06a14.56,14.56,0,0,1,14.56,14.56V543a14.56,14.56,0,0,1-14.56,14.56H805.37A229.09,229.09,0,0,1,576.28,328.52V256.83a14.56,14.56,0,0,1,14.56-14.56Z"/><circle class="cls-2" cx="241.57" cy="726.73" r="30.37" transform="translate(-524.25 731.89) rotate(-72)"/><circle class="cls-2" cx="306.67" cy="670.88" r="14.65" transform="translate(-426.14 755.22) rotate(-72)"/><line class="cls-3" x1="220.94" y1="658.42" x2="182.76" y2="630.24"/><line class="cls-3" x1="235.32" y1="647.7" x2="228.22" y2="634.87"/><line class="cls-3" x1="250.88" y1="643.74" x2="254.21" y2="605.75"/><path class="cls-3" d="M391.35,766.91C443,684.73,495.94,512.78,505.11,412.34A29,29,0,0,1,534,384h0a28.9,28.9,0,0,1,28.9,28.9V714.26c-10,44.28-27.91,85.86-85.82,87.41l-23.41,39.21"/><path class="cls-3" d="M507.52,656.43V558.58a27.69,27.69,0,0,1,27.69-27.69h0a27.69,27.69,0,0,1,27.69,27.69v97.84"/><polygon class="cls-1" points="370.77 769.02 463.36 878.91 434.95 912.74 337.49 797.06 370.77 769.02"/><polygon class="cls-3" points="370.77 742.49 463.36 852.38 434.95 886.21 337.49 770.53 370.77 742.49"/><path class="cls-3" d="M733.95,766.91c-51.62-82.18-104.59-254.13-113.76-354.58A29,29,0,0,0,591.29,384h0a28.9,28.9,0,0,0-28.9,28.9V714.26c10,44.28,27.91,85.86,85.82,87.41l23.41,39.21"/><path class="cls-3" d="M617.77,656.43V558.58a27.69,27.69,0,0,0-27.69-27.69h0a27.69,27.69,0,0,0-27.69,27.69v97.84"/><polygon class="cls-1" points="754.53 767.49 661.93 877.38 690.35 911.21 787.81 795.53 754.53 767.49"/><polygon class="cls-3" points="754.53 742.49 661.93 852.38 690.35 886.21 787.81 770.53 754.53 742.49"/><line class="cls-3" x1="524.65" y1="350.05" x2="462.06" y2="269.05"/><line class="cls-3" x1="561.06" y1="345.64" x2="561.06" y2="182.05"/><line class="cls-3" x1="597.05" y1="345.64" x2="662.72" y2="279.97"/></g></svg>