<svg xmlns="http://www.w3.org/2000/svg" viewBox="0 0 956 407"><defs><style>.cls-1{fill:#ffbe3b;}.cls-2{fill:#0db14b;}.cls-3{fill:#fcbc23;}.cls-4{fill:#fcb814;}.cls-5{fill:#197bff;}.cls-6,.cls-7{fill:none;}.cls-7{stroke:#ffbe3b;stroke-width:65px;}.cls-8{fill:#0089cf;}.cls-9{fill:#11ce8e;}</style></defs><g id="Layer_2" data-name="Layer 2"><g id="Layer_1-2" data-name="Layer 1"><g id="Graphic_404" data-name="Graphic 404"><path id="Rectangle_4995" data-name="Rectangle 4995" class="cls-1" d="M828,286h30a13,13,0,0,1,13,13h0a13,13,0,0,1-13,13H828a13,13,0,0,1-13-13h0A13,13,0,0,1,828,286Z"/><path id="Rectangle_4990" data-name="Rectangle 4990" class="cls-2" d="M246.5,90h20a4.49,4.49,0,0,1,4.5,4.5h0a4.49,4.49,0,0,1-4.5,4.5h-20a4.49,4.49,0,0,1-4.5-4.5h0A4.49,4.49,0,0,1,246.5,90Z"/><path id="Rectangle_4991" data-name="Rectangle 4991" class="cls-2" d="M5.5,164h33a4.49,4.49,0,0,1,4.5,4.5h0a4.49,4.49,0,0,1-4.5,4.5H5.5A4.49,4.49,0,0,1,1,168.5H1A4.49,4.49,0,0,1,5.5,164Z"/><path id="Rectangle_4992" data-name="Rectangle 4992" class="cls-2" d="M58.5,222h33a4.49,4.49,0,0,1,4.5,4.5h0a4.49,4.49,0,0,1-4.5,4.5h-33a4.49,4.49,0,0,1-4.5-4.5h0A4.49,4.49,0,0,1,58.5,222Z"/><path id="Rectangle_4993" data-name="Rectangle 4993" class="cls-2" d="M918.5,259h33a4.49,4.49,0,0,1,4.5,4.5h0a4.49,4.49,0,0,1-4.5,4.5h-33a4.49,4.49,0,0,1-4.5-4.5h0A4.49,4.49,0,0,1,918.5,259Z"/><path id="Rectangle_4997" data-name="Rectangle 4997" class="cls-3" d="M576.5,388h17a4.49,4.49,0,0,1,4.5,4.5h0a4.49,4.49,0,0,1-4.5,4.5h-17a4.49,4.49,0,0,1-4.5-4.5h0A4.49,4.49,0,0,1,576.5,388Z"/><path id="Rectangle_4998" data-name="Rectangle 4998" class="cls-3" d="M613.5,362h10a3.5,3.5,0,0,1,3.5,3.5h0a3.5,3.5,0,0,1-3.5,3.5h-10a3.5,3.5,0,0,1-3.5-3.5h0A3.5,3.5,0,0,1,613.5,362Z"/><path id="Rectangle_4999" data-name="Rectangle 4999" class="cls-1" d="M567.5,357h10a3.5,3.5,0,0,1,3.5,3.5h0a3.5,3.5,0,0,1-3.5,3.5h-10a3.5,3.5,0,0,1-3.5-3.5h0A3.5,3.5,0,0,1,567.5,357Z"/><path id="Rectangle_5000" data-name="Rectangle 5000" class="cls-1" d="M550.5,373h13a3.5,3.5,0,0,1,3.5,3.5h0a3.5,3.5,0,0,1-3.5,3.5h-13a3.5,3.5,0,0,1-3.5-3.5h0A3.5,3.5,0,0,1,550.5,373Z"/><path id="Rectangle_5001" data-name="Rectangle 5001" class="cls-1" d="M529,387h15a5,5,0,0,1,5,5h0a5,5,0,0,1-5,5H529a5,5,0,0,1-5-5h0A5,5,0,0,1,529,387Z"/><path id="Rectangle_5003" data-name="Rectangle 5003" class="cls-1" d="M350.5,179h45A15.5,15.5,0,0,1,411,194.5h0A15.5,15.5,0,0,1,395.5,210h-45A15.5,15.5,0,0,1,335,194.5h0A15.5,15.5,0,0,1,350.5,179Z"/><path id="Rectangle_5004" data-name="Rectangle 5004" class="cls-1" d="M334.5,313h69a3.5,3.5,0,0,1,3.5,3.5h0a3.5,3.5,0,0,1-3.5,3.5h-69a3.5,3.5,0,0,1-3.5-3.5h0A3.5,3.5,0,0,1,334.5,313Z"/><path id="Rectangle_5005" data-name="Rectangle 5005" class="cls-1" d="M328.5,328h67a4.49,4.49,0,0,1,4.5,4.5h0a4.49,4.49,0,0,1-4.5,4.5h-67a4.49,4.49,0,0,1-4.5-4.5h0A4.49,4.49,0,0,1,328.5,328Z"/><path id="Rectangle_5007" data-name="Rectangle 5007" class="cls-1" d="M270.5,254h25a4.49,4.49,0,0,1,4.5,4.5h0a4.49,4.49,0,0,1-4.5,4.5h-25a4.49,4.49,0,0,1-4.5-4.5h0A4.49,4.49,0,0,1,270.5,254Z"/><path id="Rectangle_5008" data-name="Rectangle 5008" class="cls-1" d="M270.5,270h27a4.49,4.49,0,0,1,4.5,4.5h0a4.49,4.49,0,0,1-4.5,4.5h-27a4.49,4.49,0,0,1-4.5-4.5h0A4.49,4.49,0,0,1,270.5,270Z"/><path id="Rectangle_5006" data-name="Rectangle 5006" class="cls-1" d="M334.5,345h69a3.5,3.5,0,0,1,3.5,3.5h0a3.5,3.5,0,0,1-3.5,3.5h-69a3.5,3.5,0,0,1-3.5-3.5h0A3.5,3.5,0,0,1,334.5,345Z"/><path id="Rectangle_5002" data-name="Rectangle 5002" class="cls-1" d="M556,387h6a5,5,0,0,1,5,5h0a5,5,0,0,1-5,5h-6a5,5,0,0,1-5-5h0A5,5,0,0,1,556,387Z"/><path id="Rectangle_4994" data-name="Rectangle 4994" class="cls-4" d="M868,166h36a10,10,0,0,1,10,10h0a10,10,0,0,1-10,10H868a10,10,0,0,1-10-10h0A10,10,0,0,1,868,166Z"/><path id="Rectangle_4996" data-name="Rectangle 4996" class="cls-1" d="M713,354h40a8,8,0,0,1,8,8h0a8,8,0,0,1-8,8H713a8,8,0,0,1-8-8h0A8,8,0,0,1,713,354Z"/><path id="Union_2" data-name="Union 2" class="cls-5" d="M728.85,158.79l118.74,136.6a31.5,31.5,0,0,1-28.12,51.86h-84.7V375.5a31.5,31.5,0,0,1-63,0V347.25H663a31.5,31.5,0,0,1,0-63h8.82V179.5a31.5,31.5,0,0,1,31.5-31.5h.07c.57,0,1.15-.05,1.72-.05A31.42,31.42,0,0,1,728.85,158.79Zm5.92,102.84v22.62h19.67Z"/><g id="Ellipse_177" data-name="Ellipse 177"><circle class="cls-6" cx="471.5" cy="277.5" r="129.5"/><circle class="cls-7" cx="471.5" cy="277.5" r="97"/></g><path id="Rectangle_5009" data-name="Rectangle 5009" class="cls-8" d="M84,285h82a14,14,0,0,1,14,14h0a14,14,0,0,1-14,14H84a14,14,0,0,1-14-14h0A14,14,0,0,1,84,285Z"/><path id="Rectangle_5010" data-name="Rectangle 5010" class="cls-8" d="M183.5,355h51a7.5,7.5,0,0,1,7.5,7.5h0a7.5,7.5,0,0,1-7.5,7.5h-51a7.5,7.5,0,0,1-7.5-7.5h0A7.5,7.5,0,0,1,183.5,355Z"/><path id="Rectangle_5011" data-name="Rectangle 5011" class="cls-8" d="M26,275H52a5,5,0,0,1,5,5h0a5,5,0,0,1-5,5H26a5,5,0,0,1-5-5h0A5,5,0,0,1,26,275Z"/><path id="Rectangle_5012" data-name="Rectangle 5012" class="cls-2" d="M62,221H94a5,5,0,0,1,5,5h0a5,5,0,0,1-5,5H62a5,5,0,0,1-5-5h0A5,5,0,0,1,62,221Z"/><path id="Rectangle_5013" data-name="Rectangle 5013" class="cls-2" d="M5,164H37a5,5,0,0,1,5,5h0a5,5,0,0,1-5,5H5a5,5,0,0,1-5-5H0A5,5,0,0,1,5,164Z"/><path id="Rectangle_5014" data-name="Rectangle 5014" class="cls-2" d="M347,77h19a5,5,0,0,1,5,5h0a5,5,0,0,1-5,5H347a5,5,0,0,1-5-5h0A5,5,0,0,1,347,77Z"/><path id="Rectangle_5016" data-name="Rectangle 5016" class="cls-2" d="M675,90h19a5,5,0,0,1,5,5h0a5,5,0,0,1-5,5H675a5,5,0,0,1-5-5h0A5,5,0,0,1,675,90Z"/><path id="Rectangle_5017" data-name="Rectangle 5017" class="cls-1" d="M558,26h19a5,5,0,0,1,5,5h0a5,5,0,0,1-5,5H558a5,5,0,0,1-5-5h0A5,5,0,0,1,558,26Z"/><path id="Rectangle_5018" data-name="Rectangle 5018" class="cls-4" d="M315,0h19a5,5,0,0,1,5,5h0a5,5,0,0,1-5,5H315a5,5,0,0,1-5-5h0A5,5,0,0,1,315,0Z"/><path id="Rectangle_5015" data-name="Rectangle 5015" class="cls-1" d="M504,103h9a5,5,0,0,1,5,5h0a5,5,0,0,1-5,5h-9a5,5,0,0,1-5-5h0A5,5,0,0,1,504,103Z"/><path id="Union_1" data-name="Union 1" class="cls-9" d="M208,375.5V347.25H123.3a31.5,31.5,0,0,1-28.12-51.86l118.75-136.6A31.44,31.44,0,0,1,239.45,148h.06A31.51,31.51,0,0,1,271,179.5h0V284.25h8.82a31.5,31.5,0,0,1,0,63H271V375.5a31.51,31.51,0,0,1-63,0Zm0-91.25V261.63l-19.67,22.62Z"/></g></g></g></svg>