<svg xmlns="http://www.w3.org/2000/svg" viewBox="0 0 90 90.2"><g id="Layer_2" data-name="Layer 2"><g id="Layer_1-2" data-name="Layer 1"><path d="M25.06,70l5.11-8.12L71,59.93A4.23,4.23,0,0,0,75.07,56l4.71-24A4.13,4.13,0,0,0,75.67,28h0L20,24.45l-1.51-5c-.2-.7-1.3-3.31-7.72-3.71A45.07,45.07,0,0,1,90,45.1,44.57,44.57,0,0,1,69.55,83a3.7,3.7,0,0,0,.6-2.1,4,4,0,1,0-4,4h.1a44.68,44.68,0,0,1-42.29,0,4,4,0,0,0,3.81-4,4,4,0,0,0-8,0,4.71,4.71,0,0,0,.4,1.7A45,45,0,0,1,8.72,18.44a1.88,1.88,0,0,0,.8.2c4.41,0,5.91,1.1,6.22,1.5l12,40-5.21,8.22a3.1,3.1,0,0,0-.4,3.21c.6,1.1,1.7,1.4,3.51,1.4H69.35a1.42,1.42,0,0,1,1.21,1.4A1.64,1.64,0,0,0,72.06,76a1.66,1.66,0,0,0,1.5-1.71A4.32,4.32,0,0,0,69.35,70Zm5.41-11.12L21.05,27.36l54.62,3.21a1.29,1.29,0,0,1,1.2,1L72.26,55.42c-.1.3-.3,1.4-1.3,1.4Zm9.62-7.32a3,3,0,0,0-3-3,3,3,0,0,0-3,3,3,3,0,0,0,3,3A3,3,0,0,0,40.09,51.51Zm9,0a3,3,0,0,0-3-3,3,3,0,0,0-3,3,3,3,0,0,0,3,3A3,3,0,0,0,49.11,51.51Zm9,0a3,3,0,0,0-3-3,3,3,0,0,0-3,3,3,3,0,0,0,3,3A3,3,0,0,0,58.13,51.51Zm9,0a3,3,0,1,0-3,3A3,3,0,0,0,67.15,51.51ZM68.65,40a3,3,0,0,0-3,3,3,3,0,1,0,3-3Zm-7.51-5.41a3,3,0,0,0,6,0,3,3,0,0,0-3-3A3.15,3.15,0,0,0,61.14,34.58ZM59.63,40a3,3,0,0,0-3,3,3,3,0,1,0,3-3Zm-7.41-5.41a3,3,0,0,0,3,3,3,3,0,1,0,0-6A3,3,0,0,0,52.22,34.58ZM50.61,40a3,3,0,0,0-3,3,3,3,0,1,0,3-3ZM43.2,34.58a3,3,0,0,0,3,3,3,3,0,1,0,0-6A3,3,0,0,0,43.2,34.58ZM41.59,40a3,3,0,0,0-3,3,3,3,0,0,0,3,3,3,3,0,0,0,3-3A3,3,0,0,0,41.59,40Zm-7.41-5.41a3,3,0,0,0,3,3,3,3,0,1,0,0-6A3,3,0,0,0,34.18,34.58ZM29.67,43a3,3,0,0,0,3,3,3,3,0,1,0,0-6A3,3,0,0,0,29.67,43Z"/></g></g></svg>