<svg xmlns="http://www.w3.org/2000/svg" viewBox="0 0 956.44 822.4"><defs><style>.cls-1,.cls-39{fill:#606161;}.cls-1,.cls-38{opacity:0.29;}.cls-2,.cls-3,.cls-41,.cls-43,.cls-45{fill:#fff;}.cls-3{opacity:0.9;}.cls-4{fill:#84d5f7;}.cls-20,.cls-4{opacity:0.24;}.cls-5{opacity:0.98;}.cls-6{fill:#2f485e;}.cls-7{fill:#fbb040;}.cls-8{fill:#f7941d;}.cls-9{fill:#f593a3;}.cls-10{fill:#3a2e63;}.cls-11{fill:#f594a3;}.cls-12{fill:#9e1f63;}.cls-13{fill:#40356c;}.cls-14{fill:#382d60;}.cls-15{fill:#dc4a4c;}.cls-16{fill:#64af45;}.cls-17{fill:#24155c;}.cls-18{fill:#bb866e;}.cls-19{fill:#a3674b;}.cls-21{fill:#bf715e;}.cls-22{fill:#e69545;}.cls-23{fill:#b57053;}.cls-24{fill:#74c7a6;}.cls-25{fill:#5a9f85;}.cls-26{fill:#f69078;}.cls-27{fill:#724530;}.cls-28{fill:#955c43;}.cls-29{fill:#cd544f;}.cls-30{fill:#e89245;}.cls-31{fill:#f0669b;}.cls-32{fill:#ec8823;}.cls-33{fill:#ca1e6b;}.cls-34{fill:#f8a751;}.cls-35{fill:#fec855;}.cls-36{fill:#204284;}.cls-37{fill:#7ed3f7;}.cls-40{fill:#e96563;}.cls-41{font-size:22.58px;}.cls-41,.cls-43,.cls-45{font-family:MyriadPro-BoldCond, MyriadPro BoldCond;font-weight:700;}.cls-42{opacity:0.85;}.cls-43{font-size:18.43px;}.cls-44{opacity:0.79;}.cls-45{font-size:16.65px;}.cls-46{fill:#d89b7f;}.cls-47{fill:#b17f68;}</style></defs><g id="Layer_2" data-name="Layer 2"><g id="Layer_1-2" data-name="Layer 1"><ellipse class="cls-1" cx="819.14" cy="578.34" rx="72.82" ry="7.78"/><ellipse class="cls-1" cx="349.22" cy="781.6" rx="51.76" ry="5.47"/><path class="cls-1" d="M426,67.52V603.71a44.54,44.54,0,0,1-44.55,44.55H161.51A44.54,44.54,0,0,1,117,603.71V67.52A44.56,44.56,0,0,1,161.51,23H381.45A44.56,44.56,0,0,1,426,67.52Z"/><path class="cls-1" d="M426,67.52v7.4H117v-7.4A44.56,44.56,0,0,1,161.51,23H381.45A44.56,44.56,0,0,1,426,67.52Z"/><path class="cls-1" d="M426,596.3v7.41a44.55,44.55,0,0,1-44.57,44.54H161.51A44.53,44.53,0,0,1,117,603.71V596.3Z"/><path class="cls-1" d="M426,150.17h8.09a.34.34,0,0,1,.34.34V267.84a.34.34,0,0,1-.34.34H426a0,0,0,0,1,0,0v-118A0,0,0,0,1,426,150.17Z"/><path class="cls-1" d="M109.44,148.17H117a0,0,0,0,1,0,0v57.4a0,0,0,0,1,0,0h-7.52a.31.31,0,0,1-.31-.31V148.48a.31.31,0,0,1,.31-.31Z"/><path class="cls-1" d="M110.4,232.85H117a0,0,0,0,1,0,0v35.32a0,0,0,0,1,0,0H110.4a.27.27,0,0,1-.27-.27V233.13A.27.27,0,0,1,110.4,232.85Z"/><path class="cls-2" d="M227.18,48.94a8.81,8.81,0,1,1-8.81-8.8A8.81,8.81,0,0,1,227.18,48.94Z"/><path class="cls-2" d="M246.25,48.94A4.25,4.25,0,1,1,242,44.7,4.25,4.25,0,0,1,246.25,48.94Z"/><rect class="cls-2" x="256.83" y="43.68" width="81.28" height="10.53" rx="0.21"/><path class="cls-2" d="M288.44,622a17,17,0,1,1-17-17A17,17,0,0,1,288.44,622Z"/><rect class="cls-3" x="123.78" y="74.91" width="292.13" height="521.4"/><rect class="cls-4" x="142.63" y="93.64" width="262.04" height="56.54"/><g class="cls-5"><rect class="cls-6" x="296.72" y="284.54" width="2.82" height="2.49" transform="translate(596.26 571.57) rotate(180)"/><rect class="cls-6" x="240.87" y="284.54" width="2.82" height="2.49" transform="translate(484.55 571.57) rotate(180)"/><path class="cls-7" d="M287.8,342.49l8.58-31.93,2.71-28.78-12.57-3.5s0,19.6-16.71,19.6c-11.61,0-14.34-19.6-14.34-19.6l-14.1,3.5,2.71,28.78,8.9,31.93c-3.72,13.28-11.14,23.42-14.6,41.48s2.56,72.67,2.56,72.67,9.25,6.52,29.67,6.52,33-6.52,33-6.52,4.91-54.45-.82-75.07A245.12,245.12,0,0,0,287.8,342.49Z"/><polygon class="cls-8" points="299.08 281.77 305.25 284.08 315.79 317.59 300.62 322.05 294.84 306.98 299.08 281.77"/><polygon class="cls-8" points="241.86 281.77 235.7 284.08 223.89 320.38 239.06 324.84 244.57 310.56 241.86 281.77"/><path class="cls-8" d="M302.81,381.57A243.83,243.83,0,0,0,290,347.13c2.55,7.91,7.08,22.24,10.7,35.25,5.34,19.22.76,70,.76,70s-11.74,6.07-30.79,6.07S243,452.4,243,452.4s-5.62-50.95-2.39-67.79,8.91-29.73,12.38-42.12c-3.72,13.28-11.14,23.42-14.6,41.48s2.56,72.67,2.56,72.67,9.25,6.52,29.67,6.52,33-6.52,33-6.52S308.54,402.19,302.81,381.57Z"/><path class="cls-8" d="M271.67,299.65c15.32.08,14.85-21.37,14.85-21.37s-2,17.57-16,17.49-15-16.29-15-16.29S253.78,299.55,271.67,299.65Z"/></g><path class="cls-7" d="M330.48,501.21s-18-1.28-23.31,18.21c-.11.39-.21.8-.31,1.21-4.93,20.76-9.72,31-12.45,38.14-3.68,9.64-12.46,38.66,4.67,41h4.41s8.6-3.11,6.76-35.8c0,0-.28-21.28,9.84-37.1"/><path class="cls-7" d="M357.2,502.26c.4.07,12.84,0,18.1,13.52,7.73,19.88,11.11,33.36,3.85,43.28-12.52,17.14-37.46.92-39.75-4l.6-7s12.83,5.81,22.65-7.72c3.6-4.95-.2-16.15-3.58-23.41"/><path class="cls-9" d="M312.83,676.3s12.22,93.4,13.77,103.26l3.88,1s4.56-43.33,5.86-52.67,3.11-37.88,0-52.67"/><path class="cls-9" d="M376.39,779.56s1.72-44.83,2.86-55c1.27-11.38,3.69-35,.9-57.08-2.75-21.73-27.54,4.95-27.54,4.95s15.95,85.19,19,105.84"/><path class="cls-10" d="M331.81,784l-.39-5.45-3.31.1S310.5,773,310.5,784Z"/><path class="cls-10" d="M371.11,777.17s17.7-8.17,18.58,3.6v1.36l-19.26-.77Z"/><ellipse class="cls-11" cx="341.89" cy="484.23" rx="12.2" ry="12.37"/><path class="cls-12" d="M333.71,467.31c1,6.81,5.87,12.54,11.72,16.13s12.62,5.36,19.28,7a3.7,3.7,0,0,0-.46-2.51c-2.74-6.17-6.5-12.32-12.46-15.51-5.58-3-12.3-2.94-18.14-5.36"/><path class="cls-11" d="M337.54,493.94s.52,14.53-3.89,16.35,11-1,11-1-2.44-16.61-1.66-18.68"/><path class="cls-7" d="M336.7,500.65s-12.72-.26-21.28,7c0,0-1.49,40.2,4.93,53.19H359s10.29-31.38,3.28-57.32C362.29,503.53,349,498.58,336.7,500.65Z"/><path class="cls-13" d="M318.73,555.43s-16.28,23.32-11.87,69.5,4.41,56.15,4.41,56.15,44.88,5.81,56.56,0,14.27-1.15,14.27-1.15,3-37,1.06-68.54C380.58,570.2,367,556.8,367,556.8Z"/><path class="cls-12" d="M328.06,535.81a54.25,54.25,0,0,1-15.06-6c-4.59-2.88-8.54-7-10.31-12.16-1.24-3.62-1.35-7.52-1.32-11.34a52.56,52.56,0,0,1,1.54-13.88,9.43,9.43,0,0,1,2.79-4.94,8.74,8.74,0,0,1,3.25-1.48,21.67,21.67,0,0,1,11.55.1,10.11,10.11,0,0,1,.24-7.11,6.42,6.42,0,0,1,5.7-3.85l-.36-9c-.08-2.11-.13-4.37,1-6.17,1.91-3.1,6.48-3.44,9.82-2,1.21.52,2.42,1.24,3.73,1.16a7.53,7.53,0,0,0,3.29-1.42,20.69,20.69,0,0,1,12.22-2.83,11.2,11.2,0,0,1,7.26,3c3.05,3.19,2.77,8.16,2.93,12.57a3.2,3.2,0,0,0,.23,1.23,2.73,2.73,0,0,0,1.47,1.12c2.91,1.19,6.2,1.14,9.12,2.29,6.06,2.38,9.13,9.61,8.47,16.09-.31,3-1.26,5.93-1.39,9-.31,7.38,4.33,14.38,3.67,21.73-.61,6.87-5.89,12.64-12.12,15.6s-13.29,3.52-20.18,3.64c-4.84.08-9.81,3.68-13.68.78"/><ellipse class="cls-9" cx="219.85" cy="380.39" rx="10.76" ry="11.96"/><polyline class="cls-9" points="196.68 652.55 196.4 671.35 200.27 671.98 201 650.16"/><polyline class="cls-9" points="240.16 650.16 242.85 673.26 247.36 673.26 244.19 648.39"/><path class="cls-14" d="M201,674.55l-.36-5.15-3.13.09s-16.65-5.33-16.65,5.06Z"/><path class="cls-14" d="M241.65,670.36s18-7.49,18.77,3.64v1.29l-18.21-.74Z"/><polyline class="cls-9" points="217.12 391.25 215.97 402.16 219.03 405.96 222.59 403.63 221.64 389.96"/><path class="cls-15" d="M184.32,455.39s-19.62,14.23-12.51,71.13,23.69,140,23.69,140l7.06-1s8.08-80.19,9-107.27c.37-10.69,0-42.75,0-42.75S216,520.1,220.63,565c5.81,57,18.34,100.1,20.06,100.34l7.43.09s12.24-144.82-1.25-203"/><path class="cls-16" d="M214.13,396c-5-.9-10.55-1.17-20,1.59-12.66,3.69-16.77,13.4-29.28,23.09s-9.56-.37-9.56-.37l-7.36-.73c-8.46,6-16.93,31.39,4.41,31.88s34.54-30.89,34.54-30.89c-.6,17-5.07,29.83-8.17,39.18-2.47,7.46-10.05,25.93-11.16,28.51s4.8,5.81,7.11,6.37c16.94,4.16,51.88,5.76,69.31,5.48,3.85-.06,11.16-1,13.48-4.13,1.39-1.89-.28-5.15-2.94-9.93-7.12-12.75-8.42-30.42-7.49-60.1,0,0,5.28,15.78,20,21.81,7.4,3,19.91,2,25.36-1.26,18.8-11.38,7.29-38,7.29-38l-8.85-1s2.89,18.24-17,15.5c-13.56-1.85-35-28.22-50.56-27"/><path class="cls-17" d="M209.5,384.53a6,6,0,0,1-4.51-1.71,5.78,5.78,0,0,1-1.58-4.56,2.64,2.64,0,0,0-.15-1.87c-.22-.31-.56-.65-.93-.61-4.82.52-8.91-2.52-10.46-4.43a10.94,10.94,0,0,1-2.34-6c0-1.41.77-2.59,1.36-3.86a7.23,7.23,0,0,1,5.28-3.67c3.67-.75,9.44.4,11.64.72,3.25.47,5.55,1.51,8.63,2.66a16.77,16.77,0,0,0,2.83.94,19.46,19.46,0,0,0,3.5.06c3.23-.06,6.66.85,8.82,3.25a14.59,14.59,0,0,1,3.34,7.32,15.61,15.61,0,0,1-.32,6.87c-.7,2.24-1.38,4.6-3.68,5.08-3,.62-6.25,5.51-10.76,5.26C216.65,389.76,211.85,384.46,209.5,384.53Z"/><path class="cls-17" d="M213.05,364.41a20.24,20.24,0,0,0-15.83,12.24c-1.56,3.86-1.95,8.29-4.51,11.58a8.6,8.6,0,0,0-1.91,2.91c-.51,2,1.06,3.94,1.26,6,.23,2.34-1.3,4.47-1.66,6.79a7,7,0,0,0,2.27,6.24c.79.7,1.81,1.32,2,2.36a4.48,4.48,0,0,1-.16,1.7c-.63,3.33.77,6.78,2.95,9.37a32.28,32.28,0,0,0,7.93,6.27,10.33,10.33,0,0,0,4.93,2c3.42.11,6.36-3.11,9.76-2.72,2.8.32,4.69,2.95,7.13,4.38a9.26,9.26,0,0,0,12-2.94,12.28,12.28,0,0,0,1.32-8.61,6,6,0,0,1-.08-3c.49-1.34,2-2,3.38-2.33a13.27,13.27,0,0,0,4.12-1.09,6.53,6.53,0,0,0,2.72-4.65,12.65,12.65,0,0,0-5.91-12.64,15.11,15.11,0,0,1-2.74-1.7c-2.2-2-2.14-5.34-2.47-8.28a24.92,24.92,0,0,0-15.14-19.79,26.39,26.39,0,0,0-24.87,3.1"/><rect class="cls-4" x="142.63" y="165.3" width="75.74" height="56.54"/><rect class="cls-4" x="166.42" y="227.6" width="28.15" height="10.51"/><rect class="cls-4" x="235.78" y="165.3" width="75.74" height="56.54"/><rect class="cls-4" x="259.57" y="227.6" width="28.15" height="10.51"/><rect class="cls-4" x="328.93" y="165.3" width="75.74" height="56.54"/><rect class="cls-4" x="352.73" y="227.6" width="28.15" height="10.51"/><rect class="cls-18" x="537.52" y="633.46" width="74.51" height="74.51"/><rect class="cls-19" x="534.34" y="633.46" width="80.86" height="16.69"/><rect class="cls-2" x="568.61" y="633.46" width="12.33" height="30.46"/><g class="cls-20"><rect class="cls-21" x="537.52" y="650.15" width="74.51" height="0.81"/></g><rect class="cls-22" x="600.82" y="693.98" width="45.32" height="45.32"/><rect class="cls-23" x="598.89" y="693.98" width="49.19" height="10.16"/><rect class="cls-2" x="619.73" y="693.98" width="7.5" height="18.53"/><g class="cls-20"><rect class="cls-21" x="600.82" y="704.14" width="45.32" height="0.5"/></g><rect class="cls-24" x="444.02" y="630.65" width="61.42" height="61.42"/><rect class="cls-25" x="441.4" y="630.65" width="66.66" height="13.76"/><rect class="cls-15" x="469.65" y="630.65" width="10.16" height="61.42"/><g class="cls-20"><rect class="cls-21" x="444.02" y="644.41" width="61.42" height="0.67"/></g><polygon class="cls-15" points="474.73 623.85 485.36 615.75 496.69 623.31 479.81 630.65 469.65 630.65 454.31 623.79 467.32 615.27 474.73 623.85"/><rect class="cls-26" x="420.22" y="693.61" width="101.09" height="101.09"/><rect class="cls-21" x="415.91" y="693.61" width="109.71" height="22.65"/><rect class="cls-2" x="462.4" y="693.61" width="16.73" height="41.33"/><g class="cls-20"><rect class="cls-21" x="420.22" y="716.26" width="101.09" height="1.1"/></g><path class="cls-27" d="M640.84,745.44H610.9V726.39a15,15,0,0,1,29.94,0Zm-28.34-1.6h26.74V726.39a13.37,13.37,0,0,0-26.74,0Z"/><polygon class="cls-28" points="659.5 814.39 593.93 814.39 596.52 735.92 656.04 735.92 659.5 814.39"/><path class="cls-27" d="M576.38,753.45H546.44v-19a15,15,0,1,1,29.94,0ZM548,751.85h26.73V734.41a13.37,13.37,0,1,0-26.73,0Z"/><polygon class="cls-29" points="595.03 822.4 529.47 822.4 532.06 743.93 591.58 743.93 595.03 822.4"/><path class="cls-30" d="M831.25,290.39a37.94,37.94,0,0,1-22,46.55c-21.79,9.12-48.72-6.74-43.41-22.37,1.09-3.22,6.75-5.93,15.74-4.32,8,1.44,16.42,2.28,21.75,1.62s18.27-9.57,22.17-23.13"/><path class="cls-27" d="M848.17,300.68l-15,10.75-6.83-9.54a9.22,9.22,0,1,1,15-10.74ZM833.41,310l13.38-9.59-6.26-8.72a8.23,8.23,0,1,0-13.38,9.59Z"/><polygon class="cls-31" points="882.24 328.49 849.43 352.02 822.57 311.82 852.36 290.46 882.24 328.49"/><path class="cls-27" d="M844.38,275.78l1.82,18.35-11.67,1.16a9.22,9.22,0,1,1-1.82-18.35Zm.74,17.46-1.62-16.38-10.69,1.06a8.23,8.23,0,1,0,1.62,16.38Z"/><polygon class="cls-32" points="885.5 260.17 889.48 300.34 841.24 303.52 837.62 267.05 885.5 260.17"/><polygon class="cls-11" points="656.89 529.11 650.3 533.01 653.05 536.77 663.08 531.1 656.89 529.11"/><path class="cls-11" d="M803.33,567.54l.46,7.8s4.26.77,4.35,0-.74-9.93-.74-9.93Z"/><polygon class="cls-11" points="784.28 303.89 783.35 316.99 787.66 316.99 787.66 302.93 784.28 303.89"/><ellipse class="cls-11" cx="787.66" cy="293.79" rx="10.75" ry="13.64"/><path class="cls-14" d="M780.44,303.9s-1.57-4.32,2.32-3.39,7.77.92,9.8-5.55,6.53-5.18,5.76.81a13.57,13.57,0,0,1-1,3.94s4.11-6.91,1.77-13.82c-3.9-11.49-16.75-11.16-23.19-6.29C768.81,285,767.3,301.86,780.44,303.9Z"/><path class="cls-14" d="M777.51,279.73a34,34,0,0,0-6.61-6.57,11.52,11.52,0,0,0-8.84-2.13,8.74,8.74,0,0,0-6.49,6.55,7.1,7.1,0,0,1-.77,2.63c-1,1.44-3,1.51-4.72,1.63A24.29,24.29,0,0,0,731.4,293a6.9,6.9,0,0,0-1.31,3.92c.08,1.41.92,2.72.9,4.14,0,2.41-2.52,4.12-4.9,4.49s-4.82-.14-7.22.06c-4.8.39-8.89,3.51-12.55,6.64-6.4,5.48-12.83,12.11-13.69,20.49a20,20,0,0,0,4.7,14.64,24.17,24.17,0,0,0,13.37,7.85c11.86,2.58,24.67-3.6,31.46-13.67a35.64,35.64,0,0,0,6-17.15c.19-2.49.35-5.44,2.47-6.75,1.33-.81,3-.68,4.56-.74a16.2,16.2,0,0,0,15.55-16.9c-.18-4.28-2-8.79-.23-12.68"/><path class="cls-12" d="M787.59,376.77s-8.13,55.54-19.05,64.23-20.35,34.06-23.71,37.08-66.52,50.78-85.42,55.36l-3.4-4.2s45.72-51.95,66.23-66.41c0,0,1.53-64.95,21.79-80.42l19.49-17.92"/><path class="cls-33" d="M753,369.91s-15,15.91-18.5,27.38-8.51,23.31,22,52.17,27.2,24.24,27.2,24.24,12.58,71.23,19.06,95.09l5.73.93s3.89-84.39,0-99c-4.44-16.65-22.75-68.64-26.64-75.3-3.54-6.07-.74-16.28,4.07-19.8"/><path class="cls-34" d="M771.05,310.75c5.45-1.43,15.81-2.78,22.1,4.44s9.3,16.27,5.26,32.36,6,37.63-10.75,39.11-37.31-13.78-37.31-13.78-3.65-3.46,3.58-13.89c8-11.47,6.4-23.83,6.54-32.05C760.56,322.17,762.93,312.87,771.05,310.75Z"/><path class="cls-35" d="M833.31,341.77A38,38,0,0,1,785,359.53c-21.93-8.8-30-39-15.23-46.41,3-1.53,9,.52,14.24,8,4.7,6.64,10.11,13.15,14.37,16.42s19.73,6,32-.92"/><path class="cls-10" d="M803.29,574.3s16.83-7.77,17.67,3.42V579l-18.32-.74Z"/><path class="cls-10" d="M652,531.88s15.45,10.26,6.36,16.84l-1.1.68-9-16Z"/><path class="cls-27" d="M842,368.88h-27.2V351.57a13.6,13.6,0,0,1,27.2,0Zm-25.74-1.46h24.28V351.57a12.14,12.14,0,0,0-24.28,0Z"/><polygon class="cls-36" points="858.89 431.5 799.34 431.5 801.7 360.23 855.75 360.23 858.89 431.5"/><path class="cls-27" d="M829.57,373.76l-22.65-15.05,9.58-14.41a13.6,13.6,0,1,1,22.65,15.06ZM809,358.3l20.21,13.44,8.77-13.19a12.14,12.14,0,1,0-20.21-13.44Z"/><polygon class="cls-37" points="809.01 435.29 759.42 402.33 800.84 344.28 845.86 374.2 809.01 435.29"/><path class="cls-27" d="M852.41,357.26,830.3,373.11,820.22,359a13.6,13.6,0,0,1,22.11-15.84Zm-21.77,13.81,19.73-14.15-9.23-12.87a12.14,12.14,0,0,0-19.73,14.14Z"/><polygon class="cls-29" points="902.66 398.28 854.26 432.98 814.65 373.68 858.59 342.19 902.66 398.28"/><path class="cls-27" d="M68.44,619.43H42.72V603.07a12.86,12.86,0,0,1,25.72,0ZM44.1,618h23v-15a11.48,11.48,0,0,0-23,0Z"/><polygon class="cls-33" points="84.46 678.64 28.15 678.64 30.38 611.25 81.5 611.25 84.46 678.64"/><path class="cls-27" d="M40.29,628.15H14.57V611.79a12.86,12.86,0,0,1,25.72,0ZM16,626.77h23v-15a11.48,11.48,0,0,0-23,0Z"/><polygon class="cls-13" points="56.31 687.37 0 687.37 2.22 619.98 53.34 619.98 56.31 687.37"/><rect class="cls-18" x="175.46" y="674.39" width="94.25" height="94.25"/><rect class="cls-19" x="171.44" y="674.39" width="102.29" height="21.12"/><rect class="cls-2" x="214.79" y="674.39" width="15.59" height="38.53"/><g class="cls-20"><rect class="cls-21" x="175.46" y="695.5" width="94.25" height="1.03"/></g><g class="cls-38"><rect class="cls-39" x="647.9" width="39.72" height="625.29" rx="19.86"/></g><rect class="cls-2" x="660.55" y="122.87" width="14.42" height="123.58" rx="2.76"/><circle class="cls-2" cx="667.76" cy="271.76" r="7.65"/><path class="cls-40" d="M901.18,231c-10.46,0-18.94,6.94-18.94,15.49a14.34,14.34,0,0,0,6,11.32l-.07,0-4.64,6.13L897,261.6l-.06,0a22.79,22.79,0,0,0,4.26.41c10.46,0,18.94-6.94,18.94-15.5S911.64,231,901.18,231Z"/><text class="cls-41" transform="translate(892.5 254.92)">-$</text><g class="cls-42"><path class="cls-40" d="M941,215.49c-8.54,0-15.47,5.66-15.47,12.65a11.71,11.71,0,0,0,4.93,9.24l-.06,0-3.79,5,11-1.88,0,0a18.84,18.84,0,0,0,3.48.33c8.53,0,15.46-5.66,15.46-12.65S949.51,215.49,941,215.49Z"/><text class="cls-43" transform="translate(933.89 235.02)">-$</text></g><g class="cls-44"><path class="cls-40" d="M906.24,205.56c-7.71,0-14,5.12-14,11.43a10.54,10.54,0,0,0,4.45,8.34l-.05,0-3.42,4.53,9.89-1.71,0,0a17,17,0,0,0,3.14.31c7.71,0,14-5.12,14-11.43S914,205.56,906.24,205.56Z"/><text class="cls-45" transform="translate(899.84 223.2)">-$</text></g><path class="cls-40" d="M456.57,41c-10.46,0-18.94,6.94-18.94,15.49a14.32,14.32,0,0,0,6,11.32l-.06,0L439,73.87l13.42-2.3-.06,0a22.88,22.88,0,0,0,4.26.41C467,72,475.51,65,475.51,56.45S467,41,456.57,41Z"/><text class="cls-41" transform="translate(447.89 64.88)">-$</text><g class="cls-42"><path class="cls-40" d="M496.37,25.45c-8.54,0-15.46,5.67-15.46,12.65a11.7,11.7,0,0,0,4.92,9.24l-.05,0-3.8,5,11-1.88-.05,0a18.84,18.84,0,0,0,3.48.33c8.54,0,15.46-5.66,15.46-12.65S504.91,25.45,496.37,25.45Z"/><text class="cls-43" transform="translate(489.28 44.98)">-$</text></g><g class="cls-44"><path class="cls-40" d="M461.63,15.52c-7.71,0-14,5.12-14,11.43a10.58,10.58,0,0,0,4.45,8.35l-.05,0-3.43,4.53,9.9-1.7-.05,0a17,17,0,0,0,3.14.3c7.72,0,14-5.12,14-11.43S469.35,15.52,461.63,15.52Z"/><text class="cls-45" transform="translate(455.23 33.16)">-$</text></g><rect class="cls-46" x="41.04" y="714.23" width="74.51" height="74.51"/><rect class="cls-47" x="37.87" y="714.23" width="80.86" height="16.69"/><rect class="cls-2" x="72.13" y="714.23" width="12.33" height="30.46"/><g class="cls-20"><rect class="cls-21" x="41.04" y="730.92" width="74.51" height="0.81"/></g><rect class="cls-7" x="55.63" y="667.62" width="45.32" height="45.32"/><rect class="cls-8" x="53.7" y="667.62" width="49.19" height="10.16"/><rect class="cls-15" x="74.55" y="667.62" width="7.5" height="45.32"/><g class="cls-20"><rect class="cls-21" x="55.63" y="677.77" width="45.32" height="0.5"/></g><polygon class="cls-15" points="78.3 662.6 86.14 656.63 94.5 662.2 82.05 667.62 74.55 667.62 63.23 662.56 72.83 656.27 78.3 662.6"/></g></g></svg>